<svg width="48" height="48" viewBox="0 0 48 48" fill="none" xmlns="http://www.w3.org/2000/svg">
<path d="M17.0001 12.4499C13.1267 12.4499 10.0001 15.5765 10.0001 19.4499C10.0001 23.3232 13.1267 26.4499 17.0001 26.4499C20.0567 26.4499 22.6467 24.5132 23.6034 21.7832H28.6667V26.4499H33.3334V21.7832H35.6668V17.1165H23.6034C23.1237 15.7493 22.2301 14.5653 21.0468 13.729C19.8634 12.8928 18.4491 12.4457 17.0001 12.4499ZM17.0001 21.7832C15.7167 21.7832 14.6667 20.7332 14.6667 19.4499C14.6667 18.1665 15.7167 17.1165 17.0001 17.1165C18.2834 17.1165 19.3334 18.1665 19.3334 19.4499C19.3334 20.7332 18.2834 21.7832 17.0001 21.7832ZM31.0001 40.4499C31.0001 39.1665 29.9501 38.1165 28.6667 38.1165H26.3334V33.4499H40.3334C42.9234 33.4499 45.0001 31.3732 45.0001 28.7832V10.1165C45.0001 8.87886 44.5084 7.69187 43.6332 6.81671C42.7581 5.94153 41.5711 5.44987 40.3334 5.44987H26.3334L21.6667 0.783203H7.66675C5.10008 0.783203 3.00008 2.8832 3.00008 5.44987V28.7832C3.00008 30.0209 3.49175 31.2079 4.36692 32.083C5.24209 32.9582 6.42907 33.4499 7.66675 33.4499H21.6667V38.1165H19.3334C18.0501 38.1165 17.0001 39.1665 17.0001 40.4499H0.666748V45.1165H17.0001C17.0001 46.3999 18.0501 47.4499 19.3334 47.4499H28.6667C29.9501 47.4499 31.0001 46.3999 31.0001 45.1165H47.3334V40.4499H31.0001ZM7.66675 28.7832V10.1165H40.3334V28.7832H7.66675Z" fill="#171F51"/>
</svg>
