<svg width="38" height="57" viewBox="0 0 38 57" fill="none" xmlns="http://www.w3.org/2000/svg">
<path d="M7.33317 26.4498V14.7831C7.33317 7.78312 11.9998 3.11646 18.9998 3.11646C25.9998 3.11646 30.6665 7.78312 30.6665 14.7831V26.4498H7.33317ZM18.9998 54.4498C23.3317 54.4498 27.4862 52.729 30.5492 49.6659C33.6123 46.6028 35.3332 42.4483 35.3332 38.1165C35.3332 33.7846 33.6123 29.6301 30.5492 26.567C27.4862 23.504 23.3317 21.7831 18.9998 21.7831C14.668 21.7831 10.5135 23.504 7.45043 26.567C4.38733 29.6301 2.6665 33.7846 2.6665 38.1165C2.6665 42.4483 4.38733 46.6028 7.45043 49.6659C10.5135 52.729 14.668 54.4498 18.9998 54.4498V54.4498ZM18.9998 35.7831V45.1165V35.7831ZM18.9998 38.1165C19.6187 38.1165 20.2122 37.8706 20.6498 37.433C21.0873 36.9955 21.3332 36.402 21.3332 35.7831C21.3332 35.1643 21.0873 34.5708 20.6498 34.1332C20.2122 33.6956 19.6187 33.4498 18.9998 33.4498C18.381 33.4498 17.7875 33.6956 17.3499 34.1332C16.9123 34.5708 16.6665 35.1643 16.6665 35.7831C16.6665 36.402 16.9123 36.9955 17.3499 37.433C17.7875 37.8706 18.381 38.1165 18.9998 38.1165V38.1165Z" stroke="#171F51" stroke-width="4.66667"/>
</svg>
