<svg width="45" height="43" viewBox="0 0 45 43" fill="none" xmlns="http://www.w3.org/2000/svg">
<path d="M42 10.7699V5.44987C42 2.8832 39.9 0.783203 37.3333 0.783203H4.66667C3.42899 0.783203 2.242 1.27487 1.36683 2.15004C0.491665 3.02521 0 4.21219 0 5.44987V38.1165C0 39.3542 0.491665 40.5412 1.36683 41.4164C2.242 42.2915 3.42899 42.7832 4.66667 42.7832H37.3333C39.9 42.7832 42 40.6832 42 38.1165V32.7965C42.7053 32.3893 43.2918 31.8047 43.7011 31.1006C44.1105 30.3965 44.3284 29.5976 44.3333 28.7832V14.7832C44.3284 13.9688 44.1105 13.1699 43.7011 12.4658C43.2918 11.7617 42.7053 11.1771 42 10.7699ZM39.6667 14.7832V28.7832H23.3333V14.7832H39.6667ZM4.66667 38.1165V5.44987H37.3333V10.1165H23.3333C20.7667 10.1165 18.6667 12.2165 18.6667 14.7832V28.7832C18.6667 31.3499 20.7667 33.4499 23.3333 33.4499H37.3333V38.1165H4.66667Z" fill="#171F51"/>
</svg>
