<svg width="97" height="90" viewBox="0 0 97 90" fill="none" xmlns="http://www.w3.org/2000/svg">
<path opacity="0.2" d="M96.6667 41.6129C82.65 70.6452 75.0271 90 48.3333 90C21.6396 90 0 68.3364 0 41.6129C0 14.8894 22.6062 0 49.3 0C78.7833 47.4194 96.6667 14.8894 96.6667 41.6129Z" fill="#F5B400"/>
<path d="M33.4884 20C31.5659 20 30 21.5659 30 23.4884V66.5116C30 68.4341 31.5659 70 33.4884 70H62.5581C64.4806 70 66.0465 68.4341 66.0465 66.5116V23.4884C66.0465 21.5659 64.4806 20 62.5581 20H33.4884ZM33.4884 21.1628H62.5581C63.8565 21.1628 64.8837 22.1899 64.8837 23.4884V66.5116C64.8837 67.8101 63.8565 68.8372 62.5581 68.8372H33.4884C32.1899 68.8372 31.1628 67.8101 31.1628 66.5116V23.4884C31.1628 22.1899 32.1899 21.1628 33.4884 21.1628ZM35.7049 25.2326C35.5703 25.2582 35.4491 25.3307 35.3626 25.4371C35.2762 25.5434 35.2301 25.6769 35.2326 25.8139V34.5349C35.2326 34.6891 35.2938 34.8369 35.4029 34.946C35.5119 35.055 35.6598 35.1163 35.8139 35.1163H60.2325C60.3867 35.1163 60.5346 35.055 60.6436 34.946C60.7527 34.8369 60.8139 34.6891 60.8139 34.5349V25.8139C60.8139 25.6598 60.7527 25.5119 60.6436 25.4028C60.5346 25.2938 60.3867 25.2326 60.2325 25.2326H35.8139C35.7777 25.2291 35.7412 25.2291 35.7049 25.2326ZM36.3953 26.3953H59.6511V33.9535H36.3953V26.3953ZM35.8139 39.186C35.4311 39.186 35.2346 39.496 35.2326 39.7674V44.4186C35.2326 44.723 35.5095 45 35.8139 45H40.4651C40.7695 45 41.0464 44.723 41.0465 44.4186V39.7674C41.0464 39.4631 40.7695 39.1861 40.4651 39.186H35.8139ZM45.6977 39.186C45.3148 39.186 45.1184 39.496 45.1163 39.7674V44.4186C45.1163 44.723 45.3932 45 45.6977 45H50.3488C50.6532 45 50.9302 44.723 50.9302 44.4186V39.7674C50.9302 39.4631 50.6532 39.1861 50.3488 39.186H45.6977ZM55.5814 39.186C55.1985 39.186 55.0021 39.496 55 39.7674V44.4186C55 44.723 55.277 45 55.5814 45H60.2325C60.537 45 60.8139 44.723 60.8139 44.4186V39.7674C60.8139 39.4631 60.537 39.1861 60.2325 39.186H55.5814ZM36.3953 40.3488H39.8837V43.8372H36.3953V40.3488ZM46.2791 40.3488H49.7674V43.8372H46.2791V40.3488ZM56.1628 40.3488H59.6511V43.8372H56.1628V40.3488ZM35.8139 49.0698C35.4311 49.0698 35.2346 49.3798 35.2326 49.6512V54.3023C35.2326 54.6068 35.5095 54.8837 35.8139 54.8837H40.4651C40.7695 54.8837 41.0464 54.6068 41.0465 54.3023V49.6512C41.0464 49.3468 40.7695 49.0698 40.4651 49.0698H35.8139ZM45.6977 49.0698C45.3148 49.0698 45.1184 49.3798 45.1163 49.6512V54.3023C45.1163 54.6068 45.3932 54.8837 45.6977 54.8837H50.3488C50.6532 54.8837 50.9302 54.6068 50.9302 54.3023V49.6512C50.9302 49.3468 50.6532 49.0698 50.3488 49.0698H45.6977ZM55.5814 49.0698C55.1917 49.0698 55.0089 49.3729 55 49.6512V64.1861C55 64.4905 55.277 64.7674 55.5814 64.7674H60.2325C60.537 64.7674 60.8139 64.4905 60.8139 64.1861V49.6512C60.8139 49.3468 60.537 49.0698 60.2325 49.0698H55.5814ZM36.3953 50.2326H39.8837V53.7209H36.3953V50.2326ZM46.2791 50.2326H49.7674V53.7209H46.2791V50.2326ZM56.1628 50.2326H59.6511V63.6047H56.1628V50.2326ZM35.8139 58.9535C35.4311 58.9535 35.2346 59.2635 35.2326 59.5349V64.1861C35.2326 64.4905 35.5095 64.7674 35.8139 64.7674H40.4651C40.7695 64.7674 41.0464 64.4905 41.0465 64.1861V59.5349C41.0464 59.2305 40.7695 58.9535 40.4651 58.9535H35.8139ZM45.6977 58.9535C45.3148 58.9535 45.1184 59.2635 45.1163 59.5349V64.1861C45.1163 64.4905 45.3932 64.7674 45.6977 64.7674H50.3488C50.6532 64.7674 50.9302 64.4905 50.9302 64.1861V59.5349C50.9302 59.2305 50.6532 58.9535 50.3488 58.9535H45.6977ZM36.3953 60.1163H39.8837V63.6047H36.3953V60.1163ZM46.2791 60.1163H49.7674V63.6047H46.2791V60.1163Z" fill="#4F4F4F" stroke="#4F4F4F"/>
</svg>
