<svg width="49" height="56" viewBox="0 0 49 56" fill="none" xmlns="http://www.w3.org/2000/svg">
<path d="M48.2222 55.1111C48.2222 55.1111 40.1037 51.9164 33.5368 49.3589H5.91928C2.65222 49.3589 0 46.5448 0 43.0779V6.27578C0 2.81239 2.65222 0 5.91928 0H42.3012C45.57 0 48.2205 2.81067 48.2205 6.2775V37.9733H48.2222V55.1111ZM41.0939 34.4754C40.965 34.3099 40.803 34.1729 40.6183 34.0732C40.4337 33.9735 40.2303 33.9132 40.0211 33.8962C39.8119 33.8792 39.6015 33.9059 39.4031 33.9744C39.2048 34.043 39.0229 34.152 38.8688 34.2946C38.8172 34.3394 33.6763 38.9119 24.1094 38.9119C14.6613 38.9119 9.44122 34.3721 9.34822 34.2894C9.19404 34.1476 9.01213 34.0393 8.81399 33.9714C8.61584 33.9034 8.40576 33.8773 8.19699 33.8946C7.98823 33.9119 7.78533 33.9723 7.60108 34.072C7.41684 34.1717 7.25527 34.3085 7.12656 34.4737C6.85087 34.8177 6.71607 35.2535 6.74939 35.6931C6.7785 36.1304 6.97457 36.5398 7.29706 36.8366C7.54161 37.0571 13.3886 42.2616 24.1094 42.2616C34.8319 42.2616 40.6789 37.0571 40.9234 36.8366C41.2453 36.5395 41.4407 36.1301 41.4694 35.6931C41.5028 35.2543 41.3686 34.8192 41.0939 34.4754Z" fill="white"/>
</svg>
