<svg width="62" height="62" viewBox="0 0 62 62" fill="none" xmlns="http://www.w3.org/2000/svg">
<path d="M31 1C14.458 1 1 14.458 1 31C1 47.542 14.458 61 31 61C47.542 61 61 47.542 61 31C61 14.458 47.542 1 31 1ZM31 58C16.1123 58 4 45.8877 4 31C4 16.1123 16.1123 4 31 4C45.8877 4 58 16.1123 58 31C58 45.8877 45.8877 58 31 58Z" fill="#F5B400" stroke="#F5B400" stroke-width="0.5"/>
<path d="M31.0001 7.09912C17.8211 7.09912 7.09912 17.8211 7.09912 31.0001C7.09912 44.1791 17.8211 54.9011 31.0001 54.9011C44.1791 54.9011 54.9011 44.1791 54.9011 31.0001C54.9011 17.8211 44.1791 7.09912 31.0001 7.09912ZM31.0001 52.7583C19.0027 52.7583 9.24198 42.998 9.24198 31.0001C9.24198 19.0023 19.0027 9.24198 31.0001 9.24198C42.9975 9.24198 52.7583 19.0027 52.7583 31.0001C52.7583 42.9975 42.9975 52.7583 31.0001 52.7583Z" fill="#F5B400" stroke="#F5B400" stroke-width="0.5"/>
<path d="M31.0261 20.9412C31.8181 20.9412 32.5955 21.0347 33.3477 21.2117C33.3537 21.2129 33.3597 21.2147 33.3657 21.2155C35.158 21.6407 36.8028 22.5522 38.1382 23.8872C38.7241 24.4727 39.6742 24.4731 40.2592 23.8872C40.8451 23.3014 40.8451 22.3517 40.2592 21.7658C38.8021 20.3087 37.06 19.2424 35.1605 18.6102V14.6035C35.1605 13.7751 34.489 13.1035 33.6605 13.1035C32.8321 13.1035 32.1605 13.7751 32.1605 14.6035V17.9922C31.7851 17.9601 31.4071 17.9408 31.0261 17.9408C30.6447 17.9408 30.2667 17.9601 29.8912 17.9922V14.6035C29.8912 13.7751 29.2197 13.1035 28.3912 13.1035C27.5628 13.1035 26.8912 13.7751 26.8912 14.6035V18.6102C24.9918 19.2424 23.2497 20.3091 21.793 21.7658C19.3261 24.2322 17.9675 27.5117 17.9675 30.9998C17.9675 34.4879 19.3261 37.7669 21.7925 40.2334C23.2497 41.6905 24.9914 42.7568 26.8908 43.3889V47.3957C26.8908 48.2241 27.5624 48.8957 28.3908 48.8957C29.2192 48.8957 29.8908 48.2241 29.8908 47.3957V44.0069C30.2662 44.0391 30.6447 44.0584 31.0257 44.0584C31.4067 44.0584 31.7851 44.0391 32.1601 44.0069V47.3957C32.1601 48.2241 32.8317 48.8957 33.6601 48.8957C34.4885 48.8957 35.1601 48.2241 35.1601 47.3957V43.3894C37.06 42.7572 38.8021 41.6905 40.2588 40.2334C40.8447 39.6479 40.8447 38.6978 40.2588 38.1124C39.673 37.5265 38.7237 37.5265 38.1378 38.1124C36.802 39.4478 35.1562 40.3594 33.3635 40.7845C33.3588 40.7854 33.3541 40.7867 33.3494 40.7875C32.5964 40.9649 31.8181 41.0584 31.0252 41.0584C30.2367 41.0584 29.4631 40.9658 28.714 40.7905C28.7015 40.7879 28.6895 40.7845 28.6771 40.7824C26.8882 40.3564 25.246 39.4457 23.9127 38.1124C22.0137 36.2121 20.9675 33.6865 20.9675 30.9998C20.9675 28.3127 22.0137 25.7871 23.9135 23.8877C25.8134 21.9878 28.3394 20.9412 31.0261 20.9412Z" fill="#F5B400" stroke="#F5B400" stroke-width="0.5"/>
</svg>
