<svg width="223" height="36" viewBox="0 0 223 36" fill="none" xmlns="http://www.w3.org/2000/svg">
<path d="M56.1134 14.5384L58.694 17.119L58.4735 5.93805L47.2949 5.71753L49.8755 8.29811L45.4815 12.6616L34.1785 23.9669L34.1433 23.9341C32.9966 24.8629 31.6273 25.4764 30.1708 25.714C28.7143 25.9516 27.221 25.805 25.8386 25.2888C24.4561 24.7725 23.2322 23.9044 22.288 22.7703C21.3437 21.6362 20.7118 20.2753 20.4545 18.8222L13.6113 25.6654C14.903 28.0261 16.7268 30.0534 18.9383 31.5865C21.1497 33.1197 23.6879 34.1166 26.3516 34.4982C29.0154 34.8798 31.7314 34.6355 34.2843 33.7848C36.8372 32.9341 39.1569 31.5004 41.0593 29.5972C41.2775 29.3767 41.4839 29.1492 41.6904 28.9216L41.7115 28.9451L56.1134 14.5384Z" fill="white"/>
<path d="M22.1578 11.9577L22.7865 11.329C23.8829 10.2298 25.2598 9.45253 26.7674 9.08187C28.275 8.71122 29.8554 8.7614 31.3365 9.22694C32.8176 9.69247 34.1425 10.5555 35.1669 11.722C36.1913 12.8886 36.876 14.3139 37.1463 15.8427L43.9848 9.0018C42.6924 6.6416 40.8679 4.61498 38.656 3.08266C36.444 1.55033 33.9055 0.554442 31.2417 0.173992C28.5778 -0.206457 25.862 0.0389891 23.3095 0.890859C20.7571 1.74273 18.4382 3.1776 16.5368 5.08166C16.3257 5.2928 16.1263 5.51098 15.9292 5.72916L15.9011 5.70101L2.58058 19.0215L0 16.4409L0.220523 27.6218L11.3991 27.84L8.81855 25.2594L22.1578 11.9577Z" fill="white"/>
<path d="M87.5659 19.0522C87.5659 16.284 88.2517 14.2023 89.6233 12.8072C90.995 11.4121 92.7935 10.7146 95.0191 10.7146H95.2279V15.1462H95.0566C94.0572 15.1462 93.3128 15.459 92.8233 16.0846C92.3337 16.7101 92.0897 17.6986 92.0913 19.0499V28.2226H87.5659V19.0522Z" fill="#171F51"/>
<path d="M100.349 33.6676C98.9997 32.5922 97.9889 31.1505 97.4379 29.5152H102.496C102.794 29.8866 103.153 30.204 103.559 30.4536C104.006 30.6819 104.505 30.7895 105.006 30.7656C106.052 30.7656 106.834 30.5162 107.352 30.0173C107.613 29.748 107.816 29.4278 107.948 29.0767C108.08 28.7255 108.138 28.3509 108.119 27.9763V27.8707C107.136 28.2864 106.08 28.5003 105.013 28.4994C102.689 28.4994 100.829 27.7847 99.432 26.3552C98.0353 24.9257 97.3378 22.7916 97.3394 19.953V10.7849H101.86V19.9577C101.86 21.3762 102.11 22.4171 102.611 23.0802C103.111 23.7433 103.907 24.0749 104.999 24.0749C106.094 24.0749 106.891 23.7433 107.39 23.0802C107.888 22.4171 108.139 21.3762 108.14 19.9577V10.7849H112.673V27.3522C112.689 28.7447 112.347 30.118 111.68 31.3404C111.039 32.5098 110.092 33.4829 108.94 34.1556C107.744 34.8506 106.382 35.2067 104.999 35.1855C103.321 35.2244 101.681 34.6889 100.349 33.6676Z" fill="#171F51"/>
<path d="M116.999 14.9888C117.778 13.6261 118.902 12.4931 120.26 11.7045C121.628 10.916 123.18 10.501 124.759 10.501C126.339 10.501 127.89 10.916 129.259 11.7045C130.62 12.4952 131.752 13.6272 132.543 14.9888C133.344 16.3593 133.765 17.9178 133.765 19.5049C133.765 21.0919 133.344 22.6504 132.543 24.0209C131.752 25.3825 130.62 26.5145 129.259 27.3053C127.895 28.1051 126.34 28.521 124.759 28.5087C123.19 28.5483 121.649 28.0837 120.363 27.1833V35.2065H115.795V19.5095C115.783 17.9219 116.199 16.3603 116.999 14.9888ZM127.968 22.7658C128.776 21.8718 129.224 20.7098 129.224 19.5049C129.224 18.2999 128.776 17.1379 127.968 16.2439C127.561 15.8156 127.067 15.4778 126.52 15.2522C125.974 15.0267 125.386 14.9186 124.794 14.9349C124.198 14.9196 123.605 15.028 123.053 15.2533C122.5 15.4786 122.001 15.8159 121.585 16.2439C120.756 17.1273 120.294 18.2933 120.294 19.5049C120.294 20.7164 120.756 21.8824 121.585 22.7658C122.001 23.1938 122.5 23.5311 123.053 23.7564C123.605 23.9817 124.198 24.0901 124.794 24.0748C125.386 24.0911 125.974 23.983 126.52 23.7575C127.067 23.532 127.561 23.1941 127.968 22.7658Z" fill="#171F51"/>
<path d="M141.929 15.214V19.9928C141.929 21.3894 142.173 22.3896 142.661 22.9933C143.149 23.597 143.952 23.8988 145.068 23.8988V28.3304C142.722 28.3304 140.856 27.6438 139.471 26.2706C138.085 24.8974 137.393 22.8048 137.395 19.9928V15.214H134.814V10.7848H137.395V3.84302H141.929V10.7848H145.068V15.214H141.929Z" fill="#171F51"/>
<path d="M160.115 11.7091C162.027 12.8055 163.474 14.5597 164.188 16.6447C164.902 18.7296 164.832 21.003 163.994 23.0407C163.155 25.0785 161.603 26.7415 159.629 27.7198C157.654 28.6981 155.391 28.9248 153.262 28.3576C151.132 27.7904 149.282 26.4681 148.055 24.6372C146.829 22.8063 146.31 20.5918 146.596 18.4068C146.882 16.2217 147.953 14.2152 149.609 12.7614C151.265 11.3077 153.393 10.5059 155.597 10.5056C157.184 10.495 158.744 10.9107 160.115 11.7091ZM152.423 16.2438C151.594 17.1272 151.132 18.2932 151.132 19.5047C151.132 20.7163 151.594 21.8823 152.423 22.7656C152.839 23.1933 153.338 23.5304 153.891 23.7556C154.443 23.9809 155.036 24.0896 155.632 24.0747C156.223 24.091 156.812 23.9829 157.358 23.7574C157.905 23.5319 158.398 23.194 158.806 22.7656C159.616 21.8724 160.064 20.7101 160.064 19.5047C160.064 18.2993 159.616 17.137 158.806 16.2438C158.398 15.8155 157.905 15.4776 157.358 15.2521C156.812 15.0266 156.223 14.9185 155.632 14.9348C155.036 14.9199 154.443 15.0286 153.891 15.2538C153.338 15.4791 152.839 15.8162 152.423 16.2438Z" fill="#171F51"/>
<path d="M167.909 15.214H165.293V10.7848H167.979C168.165 8.5749 168.904 6.84278 170.194 5.58847C171.484 4.33415 173.283 3.70855 175.59 3.71168V8.13386C174.796 8.12673 174.023 8.38428 173.392 8.86581C173.105 9.09429 172.877 9.38722 172.725 9.72071C172.574 10.0542 172.503 10.4188 172.519 10.7848H175.59V15.214H172.451V28.2248H167.916L167.909 15.214Z" fill="#171F51"/>
<path d="M192.427 13.2904V19.9577C192.427 22.7963 191.729 24.9304 190.334 26.3599C188.939 27.7894 187.079 28.5041 184.755 28.5041C182.428 28.5041 180.568 27.7894 179.174 26.3599C177.781 24.9304 177.082 22.7963 177.079 19.9577V10.7849H181.624V19.9577C181.624 21.3762 181.874 22.4171 182.374 23.0802C182.875 23.7433 183.672 24.0749 184.765 24.0749C185.86 24.0749 186.656 23.7433 187.153 23.0802C187.65 22.4171 187.901 21.3762 187.904 19.9577V13.2904H192.427Z" fill="#171F51"/>
<path d="M194.158 28.2249V8.64062H198.693V28.2249H194.158Z" fill="#171F51"/>
<path d="M200.875 28.2248V3.80786H205.409V28.2248H200.875Z" fill="#171F51"/>
<path d="M210.66 33.6676C209.309 32.593 208.297 31.1511 207.746 29.5152H212.804C213.102 29.8866 213.461 30.204 213.867 30.4536C214.314 30.6819 214.814 30.7895 215.316 30.7656C216.363 30.7656 217.145 30.5162 217.662 30.0173C217.924 29.7483 218.127 29.4282 218.259 29.0769C218.391 28.7257 218.449 28.351 218.429 27.9763V27.8707C217.447 28.2862 216.392 28.5 215.326 28.4994C212.999 28.4994 211.138 27.7847 209.745 26.3552C208.351 24.9257 207.653 22.7916 207.65 19.953V10.7849H212.184V19.9577C212.184 21.3762 212.435 22.4171 212.935 23.0802C213.436 23.7433 214.233 24.0749 215.326 24.0749C216.421 24.0749 217.217 23.7433 217.714 23.0802C218.211 22.4171 218.462 21.3762 218.465 19.9577V10.7849H222.999V27.3522C223.015 28.7449 222.673 30.1182 222.005 31.3404C221.364 32.5092 220.417 33.4822 219.267 34.1556C218.071 34.8501 216.709 35.2061 215.326 35.1855C213.642 35.2286 211.995 34.6928 210.66 33.6676Z" fill="#171F51"/>
<path d="M79.3083 15.0687V15.0546H79.442V15.0264H85.3891V10.7849H79.442C77.887 10.7736 76.3566 11.1734 75.0058 11.9438C73.6712 12.6933 72.5596 13.7838 71.7848 15.1038C71.0106 16.4239 70.6025 17.9265 70.6025 19.4568C70.6025 20.9871 71.0106 22.4897 71.7848 23.8098C72.5579 25.1318 73.6698 26.2234 75.0058 26.9722C76.3562 27.7436 77.8869 28.1435 79.442 28.1311H85.3891V23.8895H79.442V23.8637H79.3083V23.8497C78.1442 23.8497 77.0277 23.3872 76.2046 22.5641C75.3814 21.7409 74.919 20.6245 74.919 19.4603C74.919 18.2962 75.3814 17.1798 76.2046 16.3566C77.0277 15.5335 78.1442 15.071 79.3083 15.071V15.0687Z" fill="#171F51"/>
</svg>
