<svg width="126" height="41" viewBox="0 0 126 41" fill="none" xmlns="http://www.w3.org/2000/svg">
<path fill-rule="evenodd" clip-rule="evenodd" d="M9.94369 2.64453H116.281C118.644 2.64453 119.5 2.89142 120.364 3.34992C121.217 3.80102 121.914 4.49846 122.365 5.35147C122.824 6.21557 123.071 7.07086 123.071 9.4251V31.1335C123.071 33.4878 122.824 34.343 122.365 35.2071C121.914 36.0602 121.217 36.7576 120.364 37.2087C119.5 37.6672 118.644 37.9141 116.29 37.9141H9.93487C7.58063 37.9141 6.72534 37.6672 5.86124 37.2087C5.00823 36.7576 4.31078 36.0602 3.85969 35.2071C3.40118 34.343 3.1543 33.4878 3.1543 31.1335V9.4251C3.1543 7.07086 3.40118 6.21557 3.85969 5.35147C4.31078 4.49846 5.00823 3.80102 5.86124 3.34992C6.72534 2.89142 7.58063 2.64453 9.93487 2.64453H9.94369Z" fill="#1A2339"/>
<path d="M29.9153 20.3056C29.9329 18.6568 30.797 17.1402 32.199 16.2761C31.7598 15.6496 31.1803 15.1345 30.5067 14.7717C29.8331 14.4089 29.0841 14.2084 28.3194 14.1864C26.697 14.01 25.1186 15.1563 24.2898 15.1563C23.4433 15.1563 22.1648 14.204 20.7893 14.2304C19.8994 14.2594 19.0321 14.5183 18.2719 14.9818C17.5117 15.4454 16.8845 16.0978 16.4512 16.8757C14.573 20.1293 15.975 24.8995 17.7738 27.5271C18.6731 28.8056 19.7136 30.2428 21.0979 30.1899C22.4382 30.137 22.9496 29.3346 24.5631 29.3346C26.1767 29.3346 26.644 30.1899 28.046 30.1635C29.4921 30.137 30.4003 28.8673 31.2732 27.5712C31.9168 26.6541 32.4194 25.6401 32.7457 24.5732C31.907 24.2183 31.1914 23.6244 30.6881 22.8655C30.1848 22.1066 29.916 21.2163 29.9153 20.3056ZM27.2613 12.4581C28.0497 11.5137 28.4388 10.299 28.3458 9.07227C27.1378 9.20453 26.0268 9.77766 25.2333 10.6858C24.8427 11.1299 24.5435 11.6466 24.3528 12.2064C24.1622 12.7662 24.0838 13.3581 24.1223 13.9483C24.7243 13.9543 25.3197 13.8233 25.8636 13.5651C26.4074 13.3069 26.8854 12.9284 27.2613 12.4581Z" fill="white"/>
<path d="M48.3875 26.1347H44.2169L43.2117 29.0973H41.4482L45.3984 18.1461H47.2413L51.1915 29.0973H49.3927L48.3875 26.1347ZM44.649 24.768H47.9555L46.3243 19.9625H46.2802L44.649 24.768ZM59.7267 25.103C59.7267 27.5807 58.4041 29.1767 56.3937 29.1767C55.8863 29.2037 55.3815 29.0874 54.9371 28.841C54.4927 28.5947 54.1266 28.2282 53.8808 27.7835H53.8455V31.7337H52.2055V21.1087H53.7926V22.4314H53.819C54.076 21.9873 54.4489 21.6215 54.8977 21.373C55.3466 21.1245 55.8545 21.0027 56.3673 21.0206C58.3953 21.0206 59.7267 22.6253 59.7267 25.103ZM58.0426 25.103C58.0426 23.4894 57.2049 22.4225 55.9264 22.4225C54.6831 22.4225 53.8367 23.5071 53.8367 25.103C53.8367 26.7078 54.6831 27.7923 55.9352 27.7923C57.2049 27.7923 58.0426 26.7343 58.0426 25.103ZM68.5088 25.103C68.5088 27.5807 67.1862 29.1767 65.1846 29.1767C64.6772 29.2037 64.1725 29.0874 63.7281 28.841C63.2837 28.5947 62.9176 28.2282 62.6717 27.7835H62.6276V31.7337H60.9964V21.1087H62.5835V22.4314H62.61C62.8663 21.9887 63.2377 21.6237 63.6849 21.3753C64.132 21.1269 64.6381 21.0043 65.1494 21.0206C67.1774 21.0206 68.5088 22.6253 68.5088 25.103ZM66.8335 25.103C66.8335 23.4894 65.9958 22.4225 64.7173 22.4225C63.4653 22.4225 62.6276 23.5071 62.6276 25.103C62.6276 26.7078 63.4653 27.7923 64.7173 27.7923C65.9958 27.7923 66.8335 26.7343 66.8335 25.103ZM74.3195 26.0465C74.4429 27.131 75.4922 27.8452 76.9382 27.8452C78.3226 27.8452 79.3189 27.131 79.3189 26.1523C79.3189 25.297 78.7105 24.7944 77.2909 24.4417L75.8801 24.0978C73.861 23.6129 72.9351 22.6782 72.9351 21.1528C72.9351 19.2571 74.5752 17.9609 76.9118 17.9609C79.2307 17.9609 80.8179 19.2571 80.8708 21.1528H79.2131C79.1161 20.0595 78.2079 19.3894 76.8941 19.3894C75.5715 19.3894 74.6722 20.0595 74.6722 21.0382C74.6722 21.8053 75.2453 22.2726 76.6561 22.6165L77.8641 22.9075C80.1125 23.4365 81.0383 24.3447 81.0383 25.9407C81.0383 27.9951 79.4071 29.2737 76.8148 29.2737C74.39 29.2737 72.75 28.0216 72.6442 26.0465H74.3195ZM84.5829 19.2218V21.1087H86.0995V22.4049H84.5829V26.8136C84.5829 27.4925 84.8827 27.81 85.5528 27.81C85.7292 27.81 85.9055 27.7923 86.0819 27.7747V29.062C85.7909 29.1238 85.4823 29.1502 85.1825 29.1414C83.5601 29.1414 82.934 28.5242 82.934 26.9811V22.4049H81.7702V21.1087H82.934V19.2218H84.5829ZM86.9724 25.103C86.9724 22.5901 88.4537 21.0118 90.7639 21.0118C93.074 21.0118 94.5554 22.5989 94.5554 25.103C94.5554 27.6248 93.0829 29.1943 90.7639 29.1943C88.4449 29.1943 86.9724 27.6248 86.9724 25.103ZM92.8801 25.103C92.8801 23.3836 92.0865 22.3696 90.7639 22.3696C89.4413 22.3696 88.6477 23.3836 88.6477 25.103C88.6477 26.8312 89.4413 27.8364 90.7639 27.8364C92.0865 27.8364 92.8801 26.8312 92.8801 25.103ZM95.9044 21.1087H97.4651V22.4666H97.5004C97.7208 21.5937 98.5232 20.9941 99.4226 21.0294C99.6077 21.0294 99.8017 21.047 99.9869 21.0911V22.6253C99.7474 22.5498 99.4972 22.514 99.2462 22.5195C99.0072 22.5089 98.7688 22.5504 98.5474 22.6411C98.3261 22.7319 98.1271 22.8697 97.9644 23.045C97.8016 23.2203 97.679 23.429 97.6049 23.6565C97.5309 23.884 97.5073 24.1248 97.5356 24.3624V29.0973H95.9044V21.1087ZM107.535 26.7519C107.314 28.1979 105.903 29.1943 104.096 29.1943C101.777 29.1943 100.34 27.6336 100.34 25.1383C100.34 22.6342 101.786 21.0118 104.034 21.0118C106.238 21.0118 107.632 22.5283 107.632 24.9531V25.5086H101.988V25.6144C101.963 25.9082 102.001 26.204 102.098 26.4821C102.196 26.7603 102.352 27.0145 102.555 27.228C102.759 27.4414 103.005 27.6091 103.278 27.7201C103.552 27.8311 103.845 27.8828 104.14 27.8717C104.933 27.9422 105.683 27.4925 105.983 26.7519H107.535ZM101.997 24.3712H105.992C106.006 24.107 105.966 23.8427 105.874 23.5947C105.782 23.3467 105.639 23.1204 105.455 22.9301C105.272 22.7397 105.05 22.5893 104.806 22.4883C104.561 22.3873 104.299 22.3379 104.034 22.3432C103.496 22.3432 102.98 22.5568 102.6 22.9372C102.22 23.3175 102.006 23.8333 102.006 24.3712H101.997Z" fill="white"/>
<path d="M44.4456 9.90219C44.789 9.87852 45.1334 9.93132 45.4539 10.0568C45.7745 10.1822 46.0632 10.3772 46.2994 10.6277C46.5355 10.8781 46.7131 11.1779 46.8195 11.5052C46.9259 11.8326 46.9583 12.1795 46.9144 12.521C46.9144 14.1963 46.0063 15.1662 44.4456 15.1662H42.541V9.90219H44.4456ZM43.361 14.4167H44.3486C44.5935 14.4309 44.8386 14.3905 45.066 14.2984C45.2935 14.2064 45.4977 14.065 45.6638 13.8845C45.83 13.704 45.9541 13.4888 46.027 13.2545C46.0999 13.0203 46.1199 12.7727 46.0856 12.5298C46.1199 12.2868 46.0999 12.0393 46.027 11.805C45.9541 11.5707 45.83 11.3556 45.6638 11.175C45.4977 10.9945 45.2935 10.8531 45.066 10.7611C44.8386 10.6691 44.5935 10.6287 44.3486 10.6428H43.361V14.4167ZM47.8403 13.1734C47.8226 12.9166 47.858 12.6588 47.9442 12.4162C48.0304 12.1736 48.1655 11.9513 48.3412 11.7631C48.5169 11.5749 48.7295 11.4248 48.9656 11.3223C49.2018 11.2197 49.4565 11.1667 49.714 11.1667C49.9714 11.1667 50.2262 11.2197 50.4623 11.3223C50.6985 11.4248 50.911 11.5749 51.0867 11.7631C51.2624 11.9513 51.3976 12.1736 51.4837 12.4162C51.5699 12.6588 51.6053 12.9166 51.5877 13.1734C51.6053 13.4303 51.5699 13.6881 51.4837 13.9307C51.3976 14.1733 51.2624 14.3956 51.0867 14.5838C50.911 14.772 50.6985 14.922 50.4623 15.0246C50.2262 15.1272 49.9714 15.1802 49.714 15.1802C49.4565 15.1802 49.2018 15.1272 48.9656 15.0246C48.7295 14.922 48.5169 14.772 48.3412 14.5838C48.1655 14.3956 48.0304 14.1733 47.9442 13.9307C47.858 13.6881 47.8226 13.4303 47.8403 13.1734ZM50.7765 13.1734C50.7765 12.3182 50.3973 11.8156 49.7184 11.8156C49.0306 11.8156 48.6515 12.3182 48.6515 13.1734C48.6515 14.0464 49.0306 14.5401 49.7096 14.5401C50.3973 14.5401 50.7765 14.0375 50.7765 13.1734ZM56.5607 15.1662H55.7495L54.9294 12.2388H54.8677L54.0477 15.1662H53.2541L52.152 11.1983H52.9455L53.6509 14.2227H53.7126L54.5327 11.1895H55.2821L56.1022 14.2227H56.1639L56.8693 11.1895H57.654L56.5607 15.1662ZM58.571 11.1983H59.3293V11.8244H59.391C59.5938 11.3571 60.07 11.0749 60.5726 11.119C60.7656 11.1036 60.9597 11.132 61.1403 11.202C61.3208 11.2721 61.4833 11.382 61.6155 11.5235C61.7477 11.665 61.8463 11.8346 61.9038 12.0195C61.9614 12.2044 61.9766 12.3999 61.9481 12.5915V15.1662H61.1545V12.7855C61.1545 12.1506 60.89 11.8332 60.3081 11.8332C60.1765 11.826 60.045 11.8476 59.9226 11.8963C59.8002 11.945 59.6899 12.0198 59.5993 12.1154C59.5087 12.2111 59.44 12.3253 59.398 12.4501C59.3559 12.5749 59.3415 12.7074 59.3558 12.8384V15.1662H58.571V11.1983ZM63.2002 9.64648H63.9761V15.1662H63.1913L63.2002 9.64648ZM65.0694 13.1734C65.0518 12.9166 65.0872 12.6588 65.1734 12.4162C65.2595 12.1736 65.3947 11.9513 65.5704 11.7631C65.7461 11.5749 65.9586 11.4248 66.1948 11.3223C66.4309 11.2197 66.6857 11.1667 66.9431 11.1667C67.2006 11.1667 67.4553 11.2197 67.6915 11.3223C67.9276 11.4248 68.1402 11.5749 68.3159 11.7631C68.4916 11.9513 68.6267 12.1736 68.7129 12.4162C68.7991 12.6588 68.8345 12.9166 68.8168 13.1734C68.8345 13.4303 68.7991 13.6881 68.7129 13.9307C68.6267 14.1733 68.4916 14.3956 68.3159 14.5838C68.1402 14.772 67.9276 14.922 67.6915 15.0246C67.4553 15.1272 67.2006 15.1802 66.9431 15.1802C66.6857 15.1802 66.4309 15.1272 66.1948 15.0246C65.9586 14.922 65.7461 14.772 65.5704 14.5838C65.3947 14.3956 65.2595 14.1733 65.1734 13.9307C65.0872 13.6881 65.0518 13.4303 65.0694 13.1734ZM68.0056 13.1734C68.0056 12.3182 67.6177 11.8156 66.9475 11.8156C66.2598 11.8156 65.8806 12.3182 65.8806 13.1734C65.8806 14.0464 66.2598 14.5401 66.9387 14.5401C67.6177 14.5401 68.0056 14.0375 68.0056 13.1734ZM69.6368 14.0375C69.6368 13.3322 70.1659 12.9177 71.1182 12.856L72.1939 12.7943V12.4504C72.1939 12.036 71.9117 11.7979 71.3739 11.7979C70.933 11.7979 70.6332 11.9566 70.5539 12.2388H69.7867C69.8749 11.551 70.5098 11.119 71.4091 11.119C72.4055 11.119 72.9698 11.6128 72.9698 12.4504V15.1662H72.2115V14.6019H72.1498C71.8941 15.0163 71.4444 15.2543 70.9595 15.2279C70.7927 15.2452 70.6241 15.2272 70.4647 15.1753C70.3052 15.1234 70.1584 15.0386 70.0338 14.9264C69.9092 14.8143 69.8094 14.6772 69.7411 14.5241C69.6727 14.371 69.6372 14.2052 69.6368 14.0375ZM72.1939 13.7025V13.3674L71.224 13.4291C70.6773 13.4644 70.4304 13.6584 70.4304 14.0023C70.4304 14.355 70.739 14.5666 71.1623 14.5666C71.2872 14.5799 71.4135 14.568 71.5336 14.5314C71.6538 14.4948 71.7654 14.4344 71.8617 14.3537C71.958 14.2731 72.037 14.1738 72.0941 14.0619C72.1512 13.95 72.1851 13.8278 72.1939 13.7025ZM74.0015 13.1734C74.0015 11.9214 74.6451 11.1278 75.6503 11.1278C76.1529 11.1014 76.629 11.3747 76.8671 11.8244H76.92V9.64648H77.7136V15.1662H76.9553V14.5401H76.8936C76.6378 14.981 76.1617 15.2455 75.6503 15.2279C74.6363 15.2279 74.0015 14.4343 74.0015 13.1734ZM74.8126 13.1734C74.8126 14.0199 75.2094 14.5225 75.8707 14.5225C76.532 14.5225 76.9376 14.0111 76.9376 13.1823C76.9376 12.3534 76.5232 11.8332 75.8707 11.8332C75.2094 11.8332 74.8126 12.3446 74.8126 13.1734ZM80.9496 13.1734C80.9319 12.9166 80.9673 12.6588 81.0535 12.4162C81.1396 12.1736 81.2748 11.9513 81.4505 11.7631C81.6262 11.5749 81.8388 11.4248 82.0749 11.3223C82.3111 11.2197 82.5658 11.1667 82.8232 11.1667C83.0807 11.1667 83.3354 11.2197 83.5716 11.3223C83.8077 11.4248 84.0203 11.5749 84.196 11.7631C84.3717 11.9513 84.5068 12.1736 84.593 12.4162C84.6792 12.6588 84.7146 12.9166 84.6969 13.1734C84.7146 13.4303 84.6792 13.6881 84.593 13.9307C84.5068 14.1733 84.3717 14.3956 84.196 14.5838C84.0203 14.772 83.8077 14.922 83.5716 15.0246C83.3354 15.1272 83.0807 15.1802 82.8232 15.1802C82.5658 15.1802 82.3111 15.1272 82.0749 15.0246C81.8388 14.922 81.6262 14.772 81.4505 14.5838C81.2748 14.3956 81.1396 14.1733 81.0535 13.9307C80.9673 13.6881 80.9319 13.4303 80.9496 13.1734ZM83.8857 13.1734C83.8857 12.3182 83.4978 11.8156 82.8277 11.8156C82.1399 11.8156 81.7608 12.3182 81.7608 13.1734C81.7608 14.0464 82.1399 14.5401 82.8188 14.5401C83.4978 14.5401 83.8857 14.0375 83.8857 13.1734ZM85.7462 11.1983H86.4957V11.8244H86.5574C86.7602 11.3571 87.2364 11.0749 87.7478 11.119C87.9401 11.105 88.1332 11.1344 88.3126 11.2051C88.4921 11.2758 88.6534 11.3858 88.7846 11.5272C88.9158 11.6686 89.0135 11.8376 89.0706 12.0218C89.1277 12.206 89.1427 12.4007 89.1145 12.5915V15.1662H88.3385V12.7855C88.3385 12.1506 88.0564 11.8332 87.4744 11.8332C87.3436 11.8273 87.2131 11.8499 87.0918 11.8992C86.9705 11.9485 86.8613 12.0235 86.7717 12.1189C86.682 12.2144 86.6141 12.3281 86.5726 12.4523C86.531 12.5765 86.5168 12.7082 86.531 12.8384V15.1662H85.7374V11.1983H85.7462ZM93.5496 10.202V11.216H94.4049V11.8685H93.5496V13.9141C93.5496 14.3285 93.7171 14.5137 94.1051 14.5137L94.4049 14.496V15.1485C94.2638 15.175 94.1227 15.1838 93.9817 15.1838C93.0999 15.1838 92.7649 14.8752 92.7649 14.1169V11.8685H92.13V11.216H92.7649V10.202H93.5496ZM95.4718 9.64648H96.2565V11.8332H96.3183C96.5299 11.3659 97.0148 11.0749 97.5262 11.1278C97.7178 11.1171 97.9093 11.1488 98.0872 11.2205C98.2651 11.2923 98.425 11.4024 98.5555 11.543C98.686 11.6836 98.7839 11.8512 98.8422 12.034C98.9005 12.2167 98.9179 12.4101 98.8929 12.6003V15.1574H98.1082V12.7943C98.1082 12.1594 97.8084 11.842 97.2617 11.842C97.1267 11.8298 96.9906 11.8475 96.8631 11.8937C96.7356 11.9399 96.6199 12.0136 96.524 12.1094C96.4281 12.2053 96.3544 12.3211 96.3082 12.4486C96.262 12.5761 96.2444 12.7121 96.2565 12.8472V15.1662H95.4718V9.64648ZM103.46 14.0904C103.353 14.4525 103.122 14.7655 102.808 14.9749C102.494 15.1844 102.116 15.277 101.741 15.2367C101.48 15.2428 101.221 15.1923 100.981 15.0886C100.741 14.985 100.527 14.8307 100.353 14.6363C100.179 14.4419 100.048 14.212 99.9715 13.9625C99.8945 13.7131 99.8725 13.4499 99.9069 13.1911C99.8729 12.931 99.895 12.6667 99.9718 12.4159C100.049 12.1652 100.178 11.9338 100.352 11.7374C100.526 11.541 100.74 11.3842 100.979 11.2775C101.219 11.1708 101.479 11.1168 101.741 11.119C102.843 11.119 103.504 11.8685 103.504 13.1205V13.3851H100.709V13.438C100.697 13.5837 100.715 13.7305 100.763 13.8687C100.811 14.007 100.887 14.1338 100.987 14.2409C101.086 14.348 101.207 14.4331 101.342 14.4907C101.476 14.5483 101.621 14.5772 101.767 14.5754C102.147 14.6195 102.517 14.4255 102.711 14.0904H103.46ZM100.709 12.8119H102.711C102.721 12.6792 102.703 12.5458 102.658 12.4203C102.614 12.2949 102.544 12.18 102.453 12.083C102.361 11.986 102.251 11.909 102.129 11.8569C102.006 11.8048 101.874 11.7787 101.741 11.7803C101.605 11.7779 101.47 11.803 101.343 11.854C101.217 11.905 101.102 11.9809 101.006 12.0771C100.91 12.1734 100.834 12.2881 100.783 12.4143C100.732 12.5406 100.707 12.6758 100.709 12.8119Z" fill="white"/>
</svg>
