<svg width="360" height="213" viewBox="0 0 360 213" fill="none" xmlns="http://www.w3.org/2000/svg">
<path opacity="0.2" d="M344.172 89.1695L360 104.997L358.647 36.419L290.083 35.0664L305.911 50.8944L278.96 77.6582L209.634 146.999L209.418 146.798C202.384 152.495 193.986 156.258 185.052 157.715C176.119 159.173 166.96 158.274 158.48 155.107C150.001 151.94 142.494 146.616 136.703 139.66C130.911 132.704 127.035 124.357 125.457 115.444L83.4843 157.417C91.4066 171.896 102.593 184.331 116.157 193.735C129.721 203.138 145.289 209.253 161.627 211.593C177.965 213.934 194.624 212.436 210.283 207.218C225.941 202 240.168 193.206 251.837 181.533C253.175 180.181 254.441 178.785 255.708 177.389L255.837 177.533L344.172 89.1695Z" fill="#F5B400"/>
<path opacity="0.2" d="M135.905 73.343L139.762 69.4867C146.486 62.7447 154.932 57.9773 164.179 55.7039C173.426 53.4304 183.119 53.7382 192.203 56.5936C201.287 59.449 209.414 64.7424 215.697 71.8974C221.98 79.0524 226.18 87.7945 227.837 97.1714L269.782 55.2127C261.855 40.7364 250.664 28.3061 237.097 18.9075C223.53 9.50898 207.96 3.40068 191.621 1.06718C175.283 -1.26631 158.625 0.23914 142.969 5.4641C127.314 10.6891 113.091 19.4899 101.429 31.1685C100.134 32.4635 98.9109 33.8017 97.7022 35.1399L97.5295 34.9672L15.828 116.669L0 100.841L1.35258 169.419L69.9168 170.757L54.0887 154.929L135.905 73.343Z" fill="#F5B400"/>
</svg>
