<svg width="102" height="60" viewBox="0 0 102 60" fill="none" xmlns="http://www.w3.org/2000/svg">
<path d="M97.1017 25.1577L101.567 29.6233L101.186 10.2752L81.8416 9.89355L86.3072 14.3591L78.7036 21.91L59.1443 41.4733L59.0834 41.4165C57.099 43.0238 54.7296 44.0855 52.2092 44.4966C49.6888 44.9078 47.1047 44.6541 44.7124 43.7607C42.3201 42.8673 40.2023 41.3652 38.5683 39.4026C36.9343 37.4401 35.8407 35.0852 35.3956 32.5706L23.5537 44.4125C25.7888 48.4975 28.9449 52.0056 32.7717 54.6587C36.5985 57.3118 40.9908 59.0369 45.6003 59.6972C50.2097 60.3575 54.9097 59.9349 59.3274 58.4628C63.7451 56.9907 67.7591 54.5096 71.0512 51.2163C71.4287 50.8347 71.786 50.441 72.1432 50.0472L72.1798 50.0878L97.1017 25.1577Z" fill="#F5B400"/>
<path d="M38.3431 20.6923L39.431 19.6044C41.3282 17.7022 43.711 16.3572 46.3199 15.7158C48.9287 15.0744 51.6635 15.1612 54.2264 15.9668C56.7893 16.7724 59.082 18.2658 60.8547 20.2845C62.6274 22.3031 63.8122 24.7696 64.28 27.415L76.1137 15.5772C73.8774 11.493 70.7201 7.98602 66.8925 5.3344C63.0648 2.68278 58.672 0.959437 54.0623 0.301086C49.4527 -0.357265 44.753 0.0674688 40.3361 1.54159C35.9192 3.01572 31.9065 5.49869 28.6162 8.7936C28.2509 9.15896 27.9058 9.53651 27.5648 9.91405L27.5161 9.86534L4.46558 32.9158L0 28.4502L0.381605 47.7984L19.7257 48.1759L15.2601 43.7103L38.3431 20.6923Z" fill="#F5B400"/>
</svg>
