<svg width="170" height="27" viewBox="0 0 170 27" fill="none" xmlns="http://www.w3.org/2000/svg">
<path d="M42.7769 11.083L44.7442 13.0503L44.5761 4.52669L36.0543 4.35858L38.0215 6.32584L34.6718 9.65229L26.0553 18.2707L26.0284 18.2456C25.1542 18.9537 24.1104 19.4214 23 19.6026C21.8897 19.7837 20.7513 19.6719 19.6974 19.2784C18.6435 18.8848 17.7105 18.223 16.9907 17.3585C16.2709 16.4939 15.7891 15.4565 15.593 14.3487L10.3762 19.5655C11.3609 21.3651 12.7513 22.9106 14.4371 24.0794C16.123 25.2481 18.0579 26.0081 20.0886 26.299C22.1192 26.5899 24.1897 26.4037 26.1359 25.7552C28.0821 25.1067 29.8504 24.0137 31.3007 22.5628C31.467 22.3947 31.6244 22.2213 31.7818 22.0478L31.7979 22.0657L42.7769 11.083Z" fill="#F5B400"/>
<path d="M16.8916 9.11576L17.3709 8.63647C18.2067 7.7985 19.2564 7.20596 20.4057 6.9234C21.555 6.64084 22.7598 6.67909 23.8888 7.03399C25.0179 7.38888 26.0279 8.0468 26.8088 8.93609C27.5898 9.82538 28.1117 10.9119 28.3178 12.0774L33.531 6.86236C32.5458 5.06311 31.1549 3.51815 29.4687 2.35001C27.7824 1.18187 25.8472 0.422668 23.8165 0.13264C21.7858 -0.157389 19.7154 0.0297226 17.7696 0.67913C15.8238 1.32854 14.056 2.42238 12.6065 3.87391C12.4456 4.03487 12.2936 4.2012 12.1433 4.36752L12.1219 4.34606L1.96726 14.5007L0 12.5334L0.168111 21.057L8.68991 21.2233L6.72266 19.2561L16.8916 9.11576Z" fill="#F5B400"/>
<path d="M66.7542 14.5239C66.7542 12.4135 67.277 10.8266 68.3226 9.76311C69.3682 8.6996 70.7393 8.16785 72.4359 8.16785H72.5951V11.5462H72.4646C71.7027 11.5462 71.1352 11.7846 70.762 12.2615C70.3888 12.7384 70.2028 13.492 70.204 14.5221V21.5148H66.7542V14.5239Z" fill="white"/>
<path d="M76.4996 25.6657C75.4708 24.8459 74.7003 23.7468 74.2802 22.5002H78.136C78.3631 22.7833 78.6371 23.0253 78.9462 23.2156C79.287 23.3896 79.6674 23.4716 80.0496 23.4534C80.8473 23.4534 81.4434 23.2633 81.838 22.8829C82.0372 22.6777 82.1919 22.4336 82.2925 22.1659C82.3931 21.8982 82.4375 21.6126 82.4229 21.327V21.2465C81.6737 21.5635 80.8684 21.7265 80.055 21.7258C78.2833 21.7258 76.8651 21.1809 75.8004 20.0912C74.7357 19.0015 74.2039 17.3746 74.2051 15.2106V8.2215H77.6514V15.2142C77.6514 16.2956 77.8421 17.0891 78.2237 17.5946C78.6052 18.1001 79.2121 18.3529 80.0443 18.3529C80.8789 18.3529 81.4863 18.1001 81.8667 17.5946C82.247 17.0891 82.4378 16.2956 82.439 15.2142V8.2215H85.8942V20.8513C85.9067 21.9128 85.6462 22.9597 85.1377 23.8916C84.6488 24.7831 83.9267 25.5249 83.0488 26.0377C82.1372 26.5676 81.0985 26.839 80.0443 26.8228C78.7653 26.8525 77.5147 26.4443 76.4996 25.6657Z" fill="white"/>
<path d="M89.1918 11.4264C89.7856 10.3875 90.6431 9.52377 91.6777 8.92258C92.721 8.32151 93.9039 8.00513 95.1079 8.00513C96.3119 8.00513 97.4948 8.32151 98.5381 8.92258C99.5761 9.52537 100.439 10.3883 101.042 11.4264C101.652 12.4711 101.974 13.6592 101.974 14.8691C101.974 16.0789 101.652 17.267 101.042 18.3118C100.439 19.3498 99.5761 20.2128 98.5381 20.8156C97.4984 21.4253 96.3131 21.7423 95.1079 21.733C93.9114 21.7631 92.7368 21.409 91.7564 20.7226V26.8389H88.2744V14.8726C88.2651 13.6623 88.582 12.4719 89.1918 11.4264ZM97.5545 17.355C98.1704 16.6735 98.5114 15.7876 98.5114 14.8691C98.5114 13.9505 98.1704 13.0646 97.5545 12.3832C97.2435 12.0567 96.8674 11.7991 96.4506 11.6272C96.0337 11.4553 95.5855 11.3728 95.1347 11.3852C94.6801 11.3736 94.228 11.4563 93.807 11.628C93.3859 11.7998 93.0049 12.0569 92.6882 12.3832C92.0561 13.0566 91.7043 13.9455 91.7043 14.8691C91.7043 15.7927 92.0561 16.6816 92.6882 17.355C93.0049 17.6812 93.3859 17.9384 93.807 18.1101C94.228 18.2819 94.6801 18.3645 95.1347 18.3529C95.5855 18.3653 96.0337 18.2829 96.4506 18.111C96.8674 17.9391 97.2435 17.6815 97.5545 17.355Z" fill="white"/>
<path d="M108.197 11.5981V15.2411C108.197 16.3058 108.383 17.0683 108.755 17.5285C109.127 17.9887 109.739 18.2188 110.59 18.2188V21.5971C108.802 21.5971 107.379 21.0737 106.323 20.0269C105.267 18.9801 104.739 17.3848 104.74 15.2411V11.5981H102.773V8.22155H104.74V2.92963H108.197V8.22155H110.59V11.5981H108.197Z" fill="white"/>
<path d="M122.061 8.92615C123.518 9.76199 124.622 11.0993 125.166 12.6887C125.71 14.2782 125.657 16.0112 125.018 17.5646C124.378 19.1181 123.195 20.3859 121.69 21.1317C120.185 21.8774 118.459 22.0503 116.836 21.6179C115.213 21.1855 113.802 20.1774 112.867 18.7817C111.932 17.3859 111.537 15.6978 111.755 14.032C111.973 12.3663 112.789 10.8367 114.052 9.72842C115.314 8.62016 116.937 8.00892 118.617 8.00869C119.826 8.00067 121.016 8.31752 122.061 8.92615ZM116.197 12.3832C115.565 13.0566 115.213 13.9455 115.213 14.8691C115.213 15.7926 115.565 16.6815 116.197 17.3549C116.514 17.681 116.895 17.9379 117.316 18.1096C117.737 18.2814 118.189 18.3642 118.643 18.3529C119.094 18.3653 119.542 18.2829 119.959 18.111C120.376 17.939 120.752 17.6815 121.063 17.3549C121.68 16.674 122.022 15.788 122.022 14.8691C122.022 13.9501 121.68 13.0641 121.063 12.3832C120.752 12.0566 120.376 11.7991 119.959 11.6272C119.542 11.4552 119.094 11.3728 118.643 11.3852C118.189 11.3739 117.737 11.4567 117.316 11.6285C116.895 11.8002 116.514 12.0571 116.197 12.3832Z" fill="white"/>
<path d="M128.002 11.598H126.008V8.22149H128.056C128.198 6.53681 128.76 5.21635 129.744 4.26015C130.728 3.30394 132.099 2.82703 133.857 2.82942V6.20059C133.252 6.19515 132.663 6.39148 132.182 6.75857C131.963 6.93275 131.789 7.15606 131.674 7.41029C131.558 7.66452 131.504 7.94247 131.516 8.22149H133.857V11.598H131.465V21.5166H128.007L128.002 11.598Z" fill="white"/>
<path d="M146.693 10.1315V15.2142C146.693 17.3782 146.161 19.005 145.098 20.0948C144.034 21.1845 142.617 21.7294 140.845 21.7294C139.071 21.7294 137.653 21.1845 136.59 20.0948C135.528 19.005 134.996 17.3782 134.993 15.2142V8.2215H138.457V15.2142C138.457 16.2956 138.648 17.0891 139.03 17.5946C139.411 18.1001 140.019 18.3529 140.852 18.3529C141.687 18.3529 142.293 18.1001 142.673 17.5946C143.052 17.0891 143.243 16.2956 143.245 15.2142V10.1315H146.693Z" fill="white"/>
<path d="M148.013 21.5166V6.58691H151.47V21.5166H148.013Z" fill="white"/>
<path d="M153.133 21.5166V2.90277H156.59V21.5166H153.133Z" fill="white"/>
<path d="M160.592 25.6657C159.563 24.8465 158.791 23.7473 158.371 22.5002H162.227C162.454 22.7833 162.728 23.0253 163.037 23.2156C163.379 23.3896 163.76 23.4716 164.142 23.4534C164.94 23.4534 165.536 23.2633 165.931 22.8829C166.13 22.6779 166.285 22.4339 166.386 22.1661C166.487 21.8983 166.531 21.6127 166.516 21.327V21.2465C165.767 21.5633 164.962 21.7263 164.15 21.7258C162.375 21.7258 160.957 21.181 159.895 20.0912C158.833 19.0015 158.3 17.3746 158.298 15.2106V8.2215H161.755V15.2142C161.755 16.2956 161.946 17.0891 162.327 17.5946C162.709 18.1001 163.316 18.3529 164.15 18.3529C164.984 18.3529 165.591 18.1001 165.97 17.5946C166.349 17.0891 166.54 16.2956 166.542 15.2142V8.2215H169.999V20.8513C170.011 21.913 169.75 22.9599 169.241 23.8916C168.752 24.7826 168.031 25.5243 167.154 26.0377C166.242 26.5671 165.204 26.8385 164.15 26.8228C162.866 26.8557 161.611 26.4472 160.592 25.6657Z" fill="white"/>
<path d="M60.459 11.4872V11.4765H60.5609V11.455H65.0945V8.22155H60.5609C59.3754 8.21296 58.2088 8.51773 57.179 9.10503C56.1616 9.67635 55.3142 10.5077 54.7235 11.514C54.1334 12.5203 53.8223 13.6658 53.8223 14.8324C53.8223 15.999 54.1334 17.1445 54.7235 18.1508C55.3129 19.1586 56.1606 19.9908 57.179 20.5616C58.2085 21.1497 59.3753 21.4545 60.5609 21.4451H65.0945V18.2116H60.5609V18.192H60.459V18.1812C59.5715 18.1812 58.7204 17.8287 58.0929 17.2012C57.4654 16.5737 57.1128 15.7226 57.1128 14.8351C57.1128 13.9477 57.4654 13.0966 58.0929 12.469C58.7204 11.8415 59.5715 11.489 60.459 11.489V11.4872Z" fill="white"/>
</svg>
