<svg xmlns="http://www.w3.org/2000/svg" viewBox="0 0 30.79 26"><defs><style>.cls-1{fill:#fff;}</style></defs><title>telegram</title><g id="Layer_2" data-name="Layer 2"><g id="OBJECTS"><path class="cls-1" d="M30.59,1.08A1.87,1.87,0,0,0,28.75,0,3.65,3.65,0,0,0,27.5.23C27.31.3,8.9,7.33,1.35,10.43A2.08,2.08,0,0,0,.08,11.57,1.45,1.45,0,0,0,.83,13.3a72.13,72.13,0,0,0,7,2.33c.4,1.34,1.81,6,2.47,8a1.3,1.3,0,0,0,1.35.84h.16a.69.69,0,0,0,.45-.24.66.66,0,0,0,.17-.4l.39-5.65,3,2.25c2.35,1.75,5.15,3.83,6.72,5a2.75,2.75,0,0,0,1.59.6,2.18,2.18,0,0,0,2-1.8c1.3-5.05,3.2-14.59,4.34-20.29l.25-1.25A2.4,2.4,0,0,0,30.59,1.08ZM11.52,16.81l-.34,5c-.86-2.72-2.11-6.91-2.13-7l0,0v0L23.42,5.43a7,7,0,0,1,1.35-.76c.51-.11.63.09.54.21a24.34,24.34,0,0,1-2,1.89l-11.47,9.5h0A.71.71,0,0,0,11.52,16.81Z"/></g></g></svg>