<svg width="23" height="22" viewBox="0 0 23 22" fill="none" xmlns="http://www.w3.org/2000/svg">
<ellipse cx="11.0876" cy="11.0001" rx="7.33333" ry="7.33333" fill="#F5B400"/>
<path d="M11.0877 20.1666C6.02494 20.1666 1.92102 16.0627 1.92102 10.9999C1.92102 5.93717 6.02494 1.83325 11.0877 1.83325C16.1504 1.83325 20.2544 5.93717 20.2544 10.9999C20.2544 16.0627 16.1504 20.1666 11.0877 20.1666ZM8.23686 12.0724L8.24877 12.066L9.04627 14.6968C9.14894 14.9819 9.2901 15.0333 9.46152 15.0094C9.63385 14.9865 9.7246 14.8939 9.83735 14.7858L10.9264 13.7334L13.2639 15.4641C13.691 15.6997 13.9981 15.5778 14.1044 15.0681L15.6234 7.89792C15.7911 7.23059 15.4978 6.96292 14.9799 7.17559L6.05794 10.6223C5.44927 10.8661 5.45294 11.2071 5.94794 11.3583L8.23686 12.0733V12.0724Z" fill="#282828"/>
</svg>
