<svg width="25" height="25" viewBox="0 0 25 25" fill="none" xmlns="http://www.w3.org/2000/svg">
<path d="M12.5 22.9166C6.74692 22.9166 2.08337 18.2531 2.08337 12.5C2.08337 6.74685 6.74692 2.08331 12.5 2.08331C18.2532 2.08331 22.9167 6.74685 22.9167 12.5C22.9167 18.2531 18.2532 22.9166 12.5 22.9166ZM9.26046 13.7187L9.274 13.7114L10.1802 16.701C10.2969 17.025 10.4573 17.0833 10.6521 17.0562C10.848 17.0302 10.9511 16.925 11.0792 16.8021L12.3167 15.6062L14.973 17.5729C15.4584 17.8406 15.8073 17.7021 15.9282 17.1229L17.6542 8.97498C17.8448 8.21665 17.5115 7.91248 16.923 8.15414L6.78442 12.0708C6.09275 12.3479 6.09692 12.7354 6.65942 12.9073L9.26046 13.7198V13.7187Z" fill="#F5B400"/>
</svg>
