<svg width="22" height="18" viewBox="0 0 22 18" fill="none" xmlns="http://www.w3.org/2000/svg">
<path d="M21.162 2.656C20.3986 2.9937 19.589 3.21548 18.76 3.314C19.6338 2.79144 20.2877 1.96902 20.6 1C19.78 1.488 18.881 1.83 17.944 2.015C17.3146 1.34158 16.4804 0.894966 15.571 0.744588C14.6616 0.594209 13.7279 0.748494 12.9153 1.18346C12.1026 1.61842 11.4564 2.30969 11.0771 3.1498C10.6978 3.9899 10.6068 4.93178 10.818 5.829C9.15512 5.74566 7.52834 5.31353 6.04329 4.56067C4.55825 3.80781 3.24813 2.75105 2.19801 1.459C1.8263 2.09745 1.63096 2.82323 1.63201 3.562C1.63201 5.012 2.37001 6.293 3.49201 7.043C2.82802 7.0221 2.17864 6.84278 1.59801 6.52V6.572C1.59821 7.5377 1.93238 8.47362 2.54385 9.22106C3.15533 9.96851 4.00649 10.4815 4.95301 10.673C4.33662 10.84 3.69031 10.8647 3.06301 10.745C3.32987 11.5762 3.85001 12.3032 4.5506 12.8241C5.25118 13.345 6.09714 13.6338 6.97001 13.65C6.10249 14.3313 5.10918 14.835 4.04689 15.1322C2.98459 15.4294 1.87413 15.5143 0.779007 15.382C2.6907 16.6114 4.9161 17.2641 7.18901 17.262C14.882 17.262 19.089 10.889 19.089 5.362C19.089 5.182 19.084 5 19.076 4.822C19.8949 4.23017 20.6016 3.49702 21.163 2.657L21.162 2.656Z" fill="#171F51"/>
</svg>
