<svg width="565" height="411" viewBox="0 0 565 411" fill="none" xmlns="http://www.w3.org/2000/svg">
<g clip-path="url(#clip0)">
<path d="M242.143 383.521C348.049 383.521 433.904 297.667 433.904 191.761C433.904 85.8542 348.049 0 242.143 0C136.236 0 50.3822 85.8542 50.3822 191.761C50.3822 297.667 136.236 383.521 242.143 383.521Z" fill="#F2F2F2"/>
<path d="M76.0873 410.09C118.109 410.09 152.175 404.64 152.175 397.916C152.175 391.193 118.109 385.742 76.0873 385.742C34.0655 385.742 0 391.193 0 397.916C0 404.64 34.0655 410.09 76.0873 410.09Z" fill="#F2F2F2"/>
<path d="M447.27 397.715C512.291 397.715 565 389.282 565 378.879C565 368.475 512.291 360.042 447.27 360.042C382.25 360.042 329.54 368.475 329.54 378.879C329.54 389.282 382.25 397.715 447.27 397.715Z" fill="#F2F2F2"/>
<path d="M421.113 197.819C421.113 197.819 422.115 201.16 416.435 204.167C410.756 207.174 409.085 218.534 415.767 221.875C422.449 225.216 424.454 229.559 421.113 232.566C417.772 235.573 411.758 243.592 419.776 245.596C427.795 247.601 428.797 251.61 426.458 253.281C424.12 254.951 431.804 250.274 431.804 250.274C431.804 250.274 433.141 258.292 440.157 256.287C447.173 254.283 466.885 216.195 456.862 210.849C446.839 205.504 421.113 197.819 421.113 197.819Z" fill="#2F2E41"/>
<path d="M433.222 230.08C433.222 230.08 436.688 242.21 430.623 243.077C426.859 243.663 423.293 245.149 420.226 247.409L431.49 262.138H452.284L465.28 249.142C465.28 249.142 447.952 236.145 451.417 228.348C454.883 220.55 433.222 230.08 433.222 230.08Z" fill="#FFB9B9"/>
<path opacity="0.1" d="M433.222 230.08C433.222 230.08 436.688 242.21 430.623 243.077C426.859 243.663 423.293 245.149 420.226 247.409L431.49 262.138H452.284L465.28 249.142C465.28 249.142 447.952 236.145 451.417 228.348C454.883 220.55 433.222 230.08 433.222 230.08Z" fill="black"/>
<path d="M438.421 380.837L458.349 387.768L472.211 388.635L471.345 376.505L442.753 368.049L438.421 380.837Z" fill="#FFB9B9"/>
<path d="M463.98 378.238C463.98 378.238 463.98 390.368 465.713 390.368C467.446 390.368 490.839 387.768 497.77 390.368C504.702 392.967 515.099 383.436 509.9 378.238C504.702 373.039 496.222 365.241 490.931 366.974C485.641 368.707 463.98 373.039 463.98 373.039V378.238Z" fill="#575A89"/>
<path d="M400.299 366.974C400.299 366.974 389.902 387.768 396.833 389.501C403.764 391.234 411.562 388.635 412.428 387.768C413.295 386.902 425.425 383.436 427.157 385.169C428.89 386.902 428.89 378.238 428.89 378.238L400.299 366.974Z" fill="#575A89"/>
<path d="M408.963 338.383C408.963 338.383 392.501 360.909 404.631 366.974C416.76 373.039 474.81 373.039 479.143 366.974C483.475 360.909 485.207 341.848 479.143 340.115C473.078 338.383 408.963 338.383 408.963 338.383Z" fill="#2F2E41"/>
<path opacity="0.2" d="M408.963 338.383C408.963 338.383 392.501 360.909 404.631 366.974C416.76 373.039 474.81 373.039 479.143 366.974C483.475 360.909 485.207 341.848 479.143 340.115C473.078 338.383 408.963 338.383 408.963 338.383Z" fill="black"/>
<path d="M440.154 236.145C451.159 236.145 460.081 227.223 460.081 216.218C460.081 205.212 451.159 196.29 440.154 196.29C429.148 196.29 420.226 205.212 420.226 216.218C420.226 227.223 429.148 236.145 440.154 236.145Z" fill="#FFB9B9"/>
<path d="M408.963 247.409L426.291 243.943C426.291 243.943 430.623 257.806 444.486 255.207C458.348 252.607 461.814 243.943 461.814 243.943C461.814 243.943 472.211 248.275 473.078 248.275C473.944 248.275 485.207 252.607 485.207 255.207C485.207 257.806 472.211 283.798 472.211 283.798L473.944 330.585L409.829 328.852L414.161 282.932L408.963 247.409Z" fill="#F5B400"/>
<path d="M399.432 269.936C399.432 269.936 394.234 315.856 397.699 319.321C401.165 322.787 415.028 332.318 415.028 332.318V321.921L408.096 308.924L415.028 278.6L399.432 269.936Z" fill="#FFB9B9"/>
<path d="M489.106 268.636C489.106 268.636 486.074 315.856 486.074 317.589C486.074 319.321 478.276 325.386 475.677 325.386C473.078 325.386 471.345 321.054 471.345 321.054L477.41 314.123L473.078 278.6L489.106 268.636Z" fill="#FFB9B9"/>
<path d="M480.875 334.917C480.875 334.917 519.864 313.256 520.731 334.917C521.597 356.577 500.803 365.242 500.803 365.242C500.803 365.242 447.085 381.349 444.919 375.461C442.753 369.574 438.421 360.043 441.887 359.177C445.352 358.31 449.684 356.577 451.417 358.31C453.15 360.043 474.81 345.314 474.81 345.314L480.875 334.917Z" fill="#2F2E41"/>
<path opacity="0.2" d="M499.07 332.318C499.07 332.318 491.272 335.783 488.673 338.383C486.074 340.982 474.81 345.314 474.81 345.314" stroke="black" stroke-width="1.02821" stroke-miterlimit="10"/>
<path d="M414.161 249.142L408.963 247.409C408.963 247.409 389.902 267.336 395.966 272.535C402.031 277.733 405.497 279.466 407.23 281.199C408.963 282.932 417.627 283.798 417.627 283.798L414.161 249.142Z" fill="#F5B400"/>
<path d="M477.41 253.474L485.207 255.206C485.207 255.206 491.272 268.203 493.005 269.936C494.738 271.668 490.406 270.802 487.807 274.268C485.207 277.733 482.608 283.798 477.41 283.798C472.211 283.798 465.28 275.134 465.28 275.134L477.41 253.474Z" fill="#F5B400"/>
<path d="M410.696 342.715C410.696 342.715 377.772 319.321 366.508 336.65C355.245 353.978 415.028 377.371 423.692 380.837C432.356 384.303 440.154 387.768 440.154 387.768C440.154 387.768 447.952 368.707 447.952 365.241C447.952 361.776 441.887 361.776 440.154 361.776C438.421 361.776 430.623 360.043 428.89 357.444C427.157 354.844 410.696 342.715 410.696 342.715Z" fill="#2F2E41"/>
<path opacity="0.2" d="M392.501 336.65C392.501 336.65 401.165 343.581 408.963 345.314C416.76 347.047 419.36 351.379 419.36 351.379" stroke="black" stroke-width="1.02821" stroke-miterlimit="10"/>
<path d="M404.719 304.073L405.411 340.757C405.434 341.969 405.935 343.122 406.805 343.966C407.674 344.81 408.842 345.276 410.054 345.263L478.322 344.496C479.485 344.483 480.6 344.029 481.441 343.225C482.283 342.422 482.788 341.329 482.855 340.168L484.927 304.251C484.963 303.626 484.871 303.001 484.657 302.414C484.443 301.826 484.111 301.289 483.682 300.834C483.253 300.379 482.735 300.017 482.161 299.769C481.587 299.522 480.968 299.394 480.342 299.394H409.31C408.7 299.394 408.096 299.515 407.533 299.752C406.97 299.988 406.46 300.334 406.033 300.77C405.605 301.205 405.269 301.722 405.043 302.289C404.818 302.856 404.707 303.463 404.719 304.073Z" fill="#575A89"/>
<path d="M441.218 191.185C441.218 191.185 442.329 194.886 436.037 198.217C429.745 201.548 427.894 214.132 435.296 217.834C442.699 221.535 444.92 226.346 441.218 229.677C437.517 233.008 430.855 241.891 439.738 244.112C448.621 246.333 449.731 250.774 447.14 252.625C444.549 254.475 453.062 249.294 453.062 249.294C453.062 249.294 454.543 258.177 462.315 255.956C470.088 253.735 477.843 213.368 469.179 202.971C461.123 193.303 441.218 191.185 441.218 191.185Z" fill="#2F2E41"/>
<path d="M438.854 187.375C438.856 181.953 455.079 185.849 462.034 193.42C466.851 198.663 474.166 206.55 468.036 212.11C461.906 217.67 478.544 224.959 483.006 227.169C487.468 229.378 496.279 236.136 488.324 240.67C480.368 245.203 480.497 249.779 483.491 250.863C486.484 251.946 476.89 249.252 476.89 249.252C476.89 249.252 477.859 258.205 469.776 258.162C461.692 258.119 438.502 213.695 444.042 201.347C449.193 189.866 438.854 187.375 438.854 187.375Z" fill="#2F2E41"/>
<path d="M442.368 186.187C420.674 184.88 418.497 201.21 418.497 201.21C418.647 210.661 433.654 206.056 437.822 207.465C442.851 203.847 452.544 197.003 459.476 192.118C454.443 188.574 448.514 186.519 442.368 186.187Z" fill="#2F2E41"/>
<path d="M436.187 290.391C436.187 290.391 416.728 199.189 294.926 133.03" stroke="#3F3D56" stroke-width="1.02821" stroke-miterlimit="10"/>
<path d="M299.944 131.04L300.188 132.04L295.261 133.235L296.813 138.062L295.833 138.376L293.944 132.497L299.944 131.04Z" fill="#3F3D56"/>
<path d="M35.2024 383.579C35.2024 395.13 28.3358 399.163 19.8647 399.163C19.6684 399.163 19.4725 399.161 19.2769 399.157C18.8844 399.148 18.4957 399.129 18.1116 399.103C10.4666 398.562 4.52698 394.322 4.52698 383.579C4.52698 372.461 18.734 358.433 19.8011 357.394L19.803 357.393C19.8441 357.352 19.8647 357.333 19.8647 357.333C19.8647 357.333 35.2024 372.028 35.2024 383.579Z" fill="#F5B400"/>
<path d="M19.3059 397.396L24.9156 389.558L19.2918 398.257L19.2769 399.157C18.8844 399.148 18.4957 399.13 18.1116 399.103L18.7162 387.547L18.7115 387.457L18.7218 387.44L18.7788 386.349L13.1411 377.628L18.7966 385.53L18.8097 385.762L19.2666 377.03L14.44 368.019L19.3255 375.497L19.8011 357.394L19.803 357.333V357.393L19.7236 371.668L24.5287 366.009L19.704 372.898L19.5769 380.715L24.0633 373.212L19.5582 381.866L19.4872 386.212L26.0005 375.769L19.4629 387.729L19.3059 397.396Z" fill="#3F3D56"/>
<path d="M108.359 380.586L111.64 378.149C111.64 378.149 113.812 390.28 111.389 392.097C108.965 393.915 99.8774 396.944 99.8774 400.579C99.8774 404.214 79.2785 409.061 78.6726 403.609C78.0668 398.156 80.4902 395.127 80.4902 395.127C80.4902 395.127 90.1838 385.433 91.3955 383.615C92.6072 381.798 95.6364 378.163 95.6364 378.163L108.359 380.586Z" fill="#2F2E41"/>
<path d="M59.8912 229.729C59.8912 229.729 59.9821 230.262 60.1395 231.238C60.285 232.104 60.4849 233.328 60.7273 234.837C63.2719 250.364 70.6936 296.076 70.1907 297.585C69.5848 299.402 65.3439 306.066 70.1907 307.884C70.6572 308.06 71.16 308.629 71.6992 309.526C72.74 311.457 73.5979 313.481 74.262 315.572C77.1519 323.957 80.2418 337.377 82.029 346.671C82.8106 350.754 83.3437 354.038 83.5012 355.758C83.556 356.156 83.5621 356.559 83.5194 356.958C82.9136 359.381 87.1545 367.863 88.9721 370.287C90.7896 372.71 93.8189 375.133 93.213 377.557C92.6072 379.98 108.359 386.645 110.177 382.404C111.994 378.163 111.994 375.739 112.6 374.528C113.206 373.316 113.812 364.834 110.783 363.622C107.753 362.411 109.571 341.206 106.542 336.965C105.53 335.553 103.985 330.773 102.367 325.023C101.731 322.77 101.089 320.371 100.459 317.965C97.9023 308.108 95.6364 298.19 95.6364 298.19L96.2423 227.306L62.9205 223.065L62.0663 224.949L60.3638 228.687L59.8912 229.729Z" fill="#2F2E41"/>
<path d="M58.0737 346.053C58.0737 346.053 53.2269 341.206 50.8034 346.053C48.38 350.899 45.9566 369.681 41.7157 373.922C37.4747 378.163 32.0221 399.367 38.0806 400.579C44.1391 401.791 50.8034 398.762 51.4093 395.127C52.0151 391.491 64.738 372.71 64.738 370.892C64.738 369.075 56.2561 362.411 56.2561 362.411L58.0737 346.053Z" fill="#2F2E41"/>
<path d="M132.593 196.407C132.593 196.407 124.717 267.292 122.9 273.956C121.082 280.621 111.389 306.066 108.359 310.307C105.33 314.548 85.9428 349.082 83.5194 350.899C81.096 352.717 76.2492 357.564 76.2492 357.564C76.2492 357.564 67.1614 366.651 65.9497 368.469C64.738 370.287 54.4385 364.834 53.8327 361.199C53.2268 357.564 54.4385 351.505 55.0444 349.082C55.6502 346.658 53.8327 343.023 55.6502 341.206C57.4678 339.388 66.5556 330.3 66.5556 326.059C66.5556 321.818 82.3077 296.979 88.3662 291.526C94.4247 286.073 93.213 276.986 93.213 276.986V240.029L59.8912 229.729C59.8912 229.729 61.7088 200.648 65.9497 200.648C70.1907 200.648 125.929 190.955 132.593 196.407Z" fill="#2F2E41"/>
<path d="M83.5194 95.2302C94.5613 95.2302 103.513 86.279 103.513 75.2371C103.513 64.1952 94.5613 55.244 83.5194 55.244C72.4775 55.244 63.5263 64.1952 63.5263 75.2371C63.5263 86.279 72.4775 95.2302 83.5194 95.2302Z" fill="#9F616A"/>
<path d="M90.1838 90.9892C90.1838 90.9892 92.6072 100.077 95.6365 102.5C98.6657 104.924 87.7604 115.223 87.7604 115.223L67.1614 116.435L63.5263 104.924C63.5263 104.924 70.1907 91.595 68.3731 83.1131C66.5556 74.6312 90.1838 90.9892 90.1838 90.9892Z" fill="#9F616A"/>
<path d="M98.6657 101.289C98.6657 101.289 93.213 101.895 92.0013 103.712C90.7896 105.53 82.3077 110.982 75.6433 109.771C68.979 108.559 64.738 106.741 63.5263 107.347C62.3146 107.953 59.8912 120.676 59.8912 120.676L66.5556 140.063L65.3439 193.378L63.5263 207.919C63.5263 207.919 59.8912 203.072 74.4316 206.101C88.9721 209.13 107.753 203.678 113.812 203.072C119.871 202.466 130.17 200.648 130.776 197.013C131.382 193.378 128.958 180.049 128.958 180.049L119.265 139.457L113.206 117.647L98.6657 101.289Z" fill="#F5B400"/>
<path d="M92.935 98.5542C92.935 98.5542 98.0598 95.836 99.8774 98.2594C101.695 100.683 124.717 104.318 124.717 106.135C124.717 107.953 129.564 157.027 128.352 161.268C127.141 165.509 130.776 170.356 130.776 170.356L135.017 188.531C135.017 188.531 146.528 223.065 141.681 224.276C136.834 225.488 132.593 224.276 130.776 224.276C128.958 224.276 129.564 201.254 124.717 195.196C119.87 189.137 113.206 173.991 111.994 170.962C110.783 167.932 95.6364 126.129 96.2423 121.282C96.8481 116.435 92.935 98.5542 92.935 98.5542Z" fill="#D0CDE1"/>
<path d="M67.7673 101.289C67.7673 101.289 62.9205 101.289 62.3146 102.5C61.7088 103.712 55.6503 111.588 53.2268 113.406C50.8034 115.223 42.3215 123.099 42.3215 124.917C42.3215 126.734 59.8912 140.063 59.8912 140.063C59.8912 140.063 67.1614 175.808 63.5263 187.925C59.8912 200.042 54.4386 229.123 56.862 230.941C59.2854 232.758 64.738 233.364 64.738 230.941C64.738 228.517 68.3731 202.466 71.4024 197.013C74.4317 191.561 83.5194 157.027 79.8843 147.333C76.2492 137.64 67.7673 101.289 67.7673 101.289Z" fill="#D0CDE1"/>
<path d="M147.74 161.268C147.74 161.268 148.345 180.049 141.681 189.743C135.017 199.437 130.776 210.342 130.776 210.342C130.776 210.342 119.87 207.313 118.053 203.678C116.235 200.042 104.724 203.072 104.724 201.86C104.724 200.648 118.659 194.59 119.87 193.378C121.082 192.166 125.323 192.166 127.747 189.743C130.17 187.32 130.776 181.867 130.776 181.867L133.199 166.115L147.74 161.268Z" fill="#9F616A"/>
<path d="M97.2896 62.9098C98.8277 62.7701 100.414 62.6164 101.773 61.8833C104.819 60.2407 105.627 55.5629 103.308 52.9941C102.669 52.3404 101.954 51.7655 101.178 51.2814L96.573 48.1468C94.5361 46.7604 92.4512 45.3513 90.0756 44.6978C87.9269 44.1067 85.6576 44.1674 83.4334 44.3057C79.1156 44.574 74.7711 45.1284 70.71 46.6192C66.6489 48.1099 62.8606 50.6039 60.401 54.1628C56.5017 59.8046 56.4481 67.4137 58.5957 73.927C60.7433 80.4402 64.8227 86.1119 68.8424 91.6687L70.9281 81.4921C71.1138 80.5857 71.3541 79.5923 72.1079 79.0558C73.9816 77.7225 76.2735 80.4601 78.5731 80.4423C80.0507 80.4309 81.2912 79.2156 81.8512 77.8482C82.4111 76.4808 82.448 74.9665 82.5775 73.4946C82.8519 70.3769 83.9416 66.039 86.8941 64.3196C89.6452 62.7174 94.1972 63.1907 97.2896 62.9098Z" fill="#2F2E41"/>
<path opacity="0.1" d="M96.168 230.218C96.168 230.218 94.1218 289.406 92.9101 291.223C91.6984 293.041 92.9101 230.032 92.9101 230.032L96.168 230.218Z" fill="black"/>
<path d="M119.87 106.135H124.717C124.717 106.135 145.316 134.005 142.893 135.822C140.469 137.64 142.893 142.487 142.893 142.487L147.74 151.574C147.74 151.574 153.798 157.027 151.981 158.239C150.163 159.45 147.74 164.297 147.74 164.297C147.74 164.297 135.623 162.48 131.988 169.75L124.13 159.83L119.87 106.135Z" fill="#D0CDE1"/>
<path d="M121.584 115.1L104.952 121.967L117.751 152.961L134.382 146.093L121.584 115.1Z" fill="#2F2E41"/>
<path d="M119.634 133.277C121.471 132.519 122.396 130.536 121.699 128.848C121.002 127.16 118.948 126.407 117.111 127.166C115.274 127.924 114.349 129.908 115.046 131.595C115.743 133.283 117.797 134.036 119.634 133.277Z" fill="#F5B400"/>
<path d="M107.753 154.604C107.753 154.604 64.1322 190.955 56.862 179.444C49.5917 167.932 64.738 158.239 64.738 158.239C64.738 158.239 78.0668 158.845 93.213 149.151L108.359 142.487C108.359 142.487 122.187 122.746 126.899 130.263C131.611 137.78 118.855 150.863 107.753 154.604Z" fill="#9F616A"/>
<path d="M48.9859 122.494L42.3215 124.917V143.092L39.8981 146.728C39.8981 146.728 40.504 153.998 42.3215 155.815C44.1391 157.633 47.7742 157.027 46.5625 161.268C45.8343 164.033 45.6288 166.91 45.9566 169.75C45.9566 169.75 56.862 183.684 57.4678 181.867C58.0737 180.049 66.5556 157.633 67.7673 157.633C68.979 157.633 55.6503 122.494 55.6503 122.494H48.9859Z" fill="#D0CDE1"/>
<path d="M128.655 214.28C128.655 214.28 134.92 208.221 131.788 207.918C128.655 207.616 117.75 201.557 115.932 204.586C114.115 207.616 128.655 214.28 128.655 214.28Z" fill="#2F2E41"/>
<path d="M247.798 98.7081C252.625 98.7081 256.538 96.6365 256.538 94.0812C256.538 91.5258 252.625 89.4542 247.798 89.4542C242.971 89.4542 239.058 91.5258 239.058 94.0812C239.058 96.6365 242.971 98.7081 247.798 98.7081Z" fill="#57B894"/>
<path d="M281.215 109.504C261.507 102.061 241.8 102.061 222.093 109.504V85.3413C241.371 79.5241 261.937 79.5241 281.215 85.3413V109.504Z" stroke="#3F3D56" stroke-width="1.02821" stroke-miterlimit="10"/>
<path d="M272.989 104.507C258.766 99.1353 244.542 99.1353 230.318 104.507V87.068C244.232 82.8694 259.075 82.8694 272.989 87.068V104.507Z" stroke="#3F3D56" stroke-width="1.02821" stroke-miterlimit="10"/>
<path d="M250.883 96.6517C255.709 96.6517 259.622 94.5801 259.622 92.0248C259.622 89.4694 255.709 87.3978 250.883 87.3978C246.056 87.3978 242.143 89.4694 242.143 92.0248C242.143 94.5801 246.056 96.6517 250.883 96.6517Z" stroke="#3F3D56" stroke-width="1.02821" stroke-miterlimit="10"/>
<path d="M254.224 127.685C258.954 126.72 262.373 123.907 261.862 121.404C261.351 118.9 257.103 117.653 252.374 118.618C247.644 119.583 244.225 122.395 244.736 124.899C245.247 127.403 249.495 128.65 254.224 127.685Z" fill="#57B894"/>
<path d="M289.125 131.58C268.327 128.229 249.018 132.17 231.197 143.403L226.365 119.729C244.091 110.174 264.241 106.061 284.293 107.906L289.125 131.58Z" stroke="#3F3D56" stroke-width="1.02821" stroke-miterlimit="10"/>
<path d="M280.066 128.329C265.056 125.91 251.12 128.755 238.258 136.862L234.77 119.775C247.563 112.879 262.107 109.911 276.579 111.242L280.066 128.329Z" stroke="#3F3D56" stroke-width="1.02821" stroke-miterlimit="10"/>
<path d="M256.835 125.053C261.565 124.088 264.984 121.276 264.473 118.772C263.962 116.268 259.714 115.021 254.985 115.986C250.256 116.951 246.836 119.764 247.347 122.267C247.858 124.771 252.106 126.018 256.835 125.053Z" stroke="#3F3D56" stroke-width="1.02821" stroke-miterlimit="10"/>
<path d="M260.205 152.517C260.383 149.967 256.623 147.629 251.808 147.294C246.993 146.959 242.945 148.754 242.768 151.303C242.59 153.853 246.35 156.191 251.165 156.526C255.981 156.861 260.028 155.066 260.205 152.517Z" fill="#57B894"/>
<path d="M283.752 169.616C264.609 160.823 244.949 159.455 224.773 165.512L226.45 141.407C246.085 136.942 266.602 138.37 285.429 145.511L283.752 169.616Z" stroke="#3F3D56" stroke-width="1.02821" stroke-miterlimit="10"/>
<path d="M275.893 164.06C262.077 157.713 247.888 156.726 233.325 161.098L234.536 143.7C248.708 140.478 263.515 141.508 277.104 146.663L275.893 164.06Z" stroke="#3F3D56" stroke-width="1.02821" stroke-miterlimit="10"/>
<path d="M263.425 150.679C263.603 148.13 259.843 145.792 255.028 145.457C250.212 145.122 246.165 146.917 245.988 149.466C245.81 152.015 249.57 154.353 254.385 154.688C259.2 155.024 263.248 153.229 263.425 150.679Z" stroke="#3F3D56" stroke-width="1.02821" stroke-miterlimit="10"/>
<path d="M213.313 110.065C213.313 110.065 175.528 104.896 148.545 120.709" stroke="#3F3D56" stroke-width="1.02821" stroke-miterlimit="10"/>
<path d="M149.454 115.395L150.435 115.706L148.901 120.538L153.834 121.715L153.594 122.716L147.587 121.281L149.454 115.395Z" fill="#3F3D56"/>
</g>
<defs>
<clipPath id="clip0">
<rect width="565" height="410.09" fill="white"/>
</clipPath>
</defs>
</svg>
