<svg width="613" height="459" viewBox="0 0 613 459" fill="none" xmlns="http://www.w3.org/2000/svg">
<g clip-path="url(#clip0)" filter="url(#filter0_dd)">
<g filter="url(#filter1_dd)">
<path d="M266.143 391.521C372.049 391.521 457.904 305.667 457.904 199.761C457.904 93.8542 372.049 8 266.143 8C160.236 8 74.3821 93.8542 74.3821 199.761C74.3821 305.667 160.236 391.521 266.143 391.521Z" fill="#141D31"/>
</g>
<path d="M100.087 418.09C142.109 418.09 176.175 412.64 176.175 405.916C176.175 399.193 142.109 393.742 100.087 393.742C58.0655 393.742 24 399.193 24 405.916C24 412.64 58.0655 418.09 100.087 418.09Z" fill="#F2F2F2"/>
<path d="M471.27 405.715C536.291 405.715 589 397.282 589 386.879C589 376.475 536.291 368.042 471.27 368.042C406.25 368.042 353.541 376.475 353.541 386.879C353.541 397.282 406.25 405.715 471.27 405.715Z" fill="#F2F2F2"/>
<path d="M445.113 205.819C445.113 205.819 446.115 209.16 440.435 212.167C434.756 215.174 433.085 226.534 439.767 229.875C446.449 233.216 448.454 237.559 445.113 240.566C441.772 243.573 435.758 251.592 443.776 253.596C451.795 255.601 452.797 259.61 450.458 261.281C448.12 262.951 455.804 258.274 455.804 258.274C455.804 258.274 457.141 266.292 464.157 264.287C471.173 262.283 490.885 224.195 480.862 218.849C470.839 213.504 445.113 205.819 445.113 205.819Z" fill="#2F2E41"/>
<path d="M457.222 238.08C457.222 238.08 460.688 250.21 454.623 251.077C450.86 251.663 447.293 253.149 444.226 255.409L455.49 270.138H476.284L489.28 257.142C489.28 257.142 471.952 244.145 475.417 236.348C478.883 228.55 457.222 238.08 457.222 238.08Z" fill="#FFB9B9"/>
<path opacity="0.1" d="M457.222 238.08C457.222 238.08 460.688 250.21 454.623 251.077C450.86 251.663 447.293 253.149 444.226 255.409L455.49 270.138H476.284L489.28 257.142C489.28 257.142 471.952 244.145 475.417 236.348C478.883 228.55 457.222 238.08 457.222 238.08Z" fill="black"/>
<path d="M462.421 388.837L482.349 395.768L496.211 396.635L495.345 384.505L466.753 376.049L462.421 388.837Z" fill="#FFB9B9"/>
<path d="M487.98 386.238C487.98 386.238 487.98 398.368 489.713 398.368C491.446 398.368 514.839 395.768 521.771 398.368C528.702 400.967 539.099 391.436 533.9 386.238C528.702 381.039 520.222 373.241 514.931 374.974C509.641 376.707 487.98 381.039 487.98 381.039V386.238Z" fill="#575A89"/>
<path d="M424.298 374.974C424.298 374.974 413.902 395.768 420.833 397.501C427.764 399.234 435.562 396.635 436.428 395.768C437.295 394.902 449.425 391.436 451.157 393.169C452.89 394.902 452.89 386.238 452.89 386.238L424.298 374.974Z" fill="#575A89"/>
<path d="M432.963 346.383C432.963 346.383 416.501 368.909 428.631 374.974C440.76 381.039 498.81 381.039 503.142 374.974C507.475 368.909 509.207 349.848 503.142 348.115C497.078 346.383 432.963 346.383 432.963 346.383Z" fill="#2F2E41"/>
<path opacity="0.2" d="M432.963 346.383C432.963 346.383 416.501 368.909 428.631 374.974C440.76 381.039 498.81 381.039 503.142 374.974C507.475 368.909 509.207 349.848 503.142 348.115C497.078 346.383 432.963 346.383 432.963 346.383Z" fill="black"/>
<path d="M464.154 244.145C475.16 244.145 484.081 235.223 484.081 224.218C484.081 213.212 475.16 204.29 464.154 204.29C453.148 204.29 444.226 213.212 444.226 224.218C444.226 235.223 453.148 244.145 464.154 244.145Z" fill="#FFB9B9"/>
<path d="M432.963 255.409L450.291 251.943C450.291 251.943 454.623 265.806 468.486 263.207C482.348 260.607 485.814 251.943 485.814 251.943C485.814 251.943 496.211 256.275 497.078 256.275C497.944 256.275 509.207 260.607 509.207 263.207C509.207 265.806 496.211 291.798 496.211 291.798L497.944 338.585L433.829 336.852L438.161 290.932L432.963 255.409Z" fill="#F5B400"/>
<path d="M423.432 277.936C423.432 277.936 418.234 323.856 421.699 327.321C425.165 330.787 439.028 340.318 439.028 340.318V329.921L432.096 316.924L439.028 286.6L423.432 277.936Z" fill="#FFB9B9"/>
<path d="M513.106 276.636C513.106 276.636 510.074 323.856 510.074 325.589C510.074 327.321 502.276 333.386 499.677 333.386C497.078 333.386 495.345 329.054 495.345 329.054L501.41 322.123L497.078 286.6L513.106 276.636Z" fill="#FFB9B9"/>
<path d="M504.875 342.917C504.875 342.917 543.864 321.256 544.731 342.917C545.597 364.577 524.803 373.242 524.803 373.242C524.803 373.242 471.085 389.349 468.919 383.461C466.753 377.574 462.421 368.043 465.887 367.177C469.352 366.31 473.684 364.577 475.417 366.31C477.15 368.043 498.81 353.314 498.81 353.314L504.875 342.917Z" fill="#2F2E41"/>
<path opacity="0.2" d="M523.07 340.318C523.07 340.318 515.272 343.783 512.673 346.383C510.074 348.982 498.81 353.314 498.81 353.314" stroke="black" stroke-width="1.02821" stroke-miterlimit="10"/>
<path d="M438.161 257.142L432.963 255.409C432.963 255.409 413.902 275.336 419.966 280.535C426.031 285.733 429.497 287.466 431.23 289.199C432.963 290.932 441.627 291.798 441.627 291.798L438.161 257.142Z" fill="#F5B400"/>
<path d="M501.41 261.474L509.208 263.206C509.208 263.206 515.272 276.203 517.005 277.936C518.738 279.668 514.406 278.802 511.807 282.268C509.207 285.733 506.608 291.798 501.41 291.798C496.211 291.798 489.28 283.134 489.28 283.134L501.41 261.474Z" fill="#F5B400"/>
<path d="M434.696 350.715C434.696 350.715 401.772 327.321 390.508 344.65C379.245 361.978 439.028 385.371 447.692 388.837C456.356 392.303 464.154 395.768 464.154 395.768C464.154 395.768 471.952 376.707 471.952 373.241C471.952 369.776 465.887 369.776 464.154 369.776C462.421 369.776 454.623 368.043 452.89 365.444C451.157 362.844 434.696 350.715 434.696 350.715Z" fill="#2F2E41"/>
<path opacity="0.2" d="M416.501 344.65C416.501 344.65 425.165 351.581 432.963 353.314C440.76 355.047 443.36 359.379 443.36 359.379" stroke="black" stroke-width="1.02821" stroke-miterlimit="10"/>
<path d="M428.719 312.073L429.411 348.757C429.434 349.969 429.935 351.122 430.804 351.966C431.674 352.81 432.842 353.276 434.054 353.263L502.322 352.496C503.485 352.483 504.6 352.029 505.441 351.225C506.283 350.422 506.788 349.329 506.855 348.168L508.927 312.251C508.963 311.626 508.871 311.001 508.657 310.414C508.443 309.826 508.111 309.289 507.682 308.834C507.253 308.379 506.735 308.017 506.161 307.769C505.587 307.522 504.968 307.394 504.342 307.394H433.31C432.7 307.394 432.096 307.515 431.533 307.752C430.97 307.988 430.46 308.334 430.033 308.77C429.605 309.205 429.269 309.722 429.043 310.289C428.818 310.856 428.707 311.463 428.719 312.073Z" fill="#575A89"/>
<path d="M465.218 199.185C465.218 199.185 466.329 202.886 460.037 206.217C453.745 209.548 451.894 222.132 459.296 225.834C466.699 229.535 468.92 234.346 465.218 237.677C461.517 241.008 454.855 249.891 463.738 252.112C472.621 254.333 473.731 258.774 471.14 260.625C468.549 262.475 477.062 257.294 477.062 257.294C477.062 257.294 478.543 266.177 486.315 263.956C494.088 261.735 501.843 221.368 493.179 210.971C485.123 201.303 465.218 199.185 465.218 199.185Z" fill="#2F2E41"/>
<path d="M462.854 195.375C462.856 189.953 479.079 193.849 486.034 201.42C490.851 206.663 498.166 214.55 492.036 220.11C485.906 225.67 502.544 232.959 507.006 235.169C511.468 237.378 520.279 244.136 512.324 248.67C504.368 253.203 504.497 257.779 507.491 258.863C510.484 259.946 500.89 257.252 500.89 257.252C500.89 257.252 501.859 266.205 493.776 266.162C485.692 266.119 462.501 221.695 468.042 209.347C473.193 197.866 462.854 195.375 462.854 195.375Z" fill="#2F2E41"/>
<path d="M466.368 194.187C444.674 192.88 442.497 209.21 442.497 209.21C442.647 218.661 457.654 214.056 461.822 215.465C466.851 211.847 476.544 205.003 483.476 200.118C478.443 196.574 472.514 194.519 466.368 194.187Z" fill="#2F2E41"/>
<path d="M460.187 298.391C460.187 298.391 440.727 207.189 318.926 141.03" stroke="white" stroke-width="1.02821" stroke-miterlimit="10"/>
<path d="M323.944 139.04L324.188 140.04L319.261 141.235L320.813 146.062L319.833 146.376L317.944 140.497L323.944 139.04Z" fill="white"/>
<path d="M59.2023 391.579C59.2023 403.13 52.3357 407.163 43.8646 407.163C43.6683 407.163 43.4724 407.161 43.2768 407.157C42.8843 407.148 42.4955 407.129 42.1115 407.103C34.4664 406.562 28.5269 402.322 28.5269 391.579C28.5269 380.461 42.7338 366.433 43.801 365.394L43.8029 365.393C43.844 365.352 43.8646 365.333 43.8646 365.333C43.8646 365.333 59.2023 380.028 59.2023 391.579Z" fill="#F5B400"/>
<path d="M43.3059 405.396L48.9156 397.558L43.2919 406.257L43.277 407.157C42.8845 407.148 42.4957 407.13 42.1116 407.103L42.7163 395.547L42.7116 395.457L42.7219 395.44L42.7789 394.349L37.1411 385.628L42.7966 393.53L42.8097 393.762L43.2667 385.03L38.4401 376.019L43.3255 383.497L43.8012 365.394L43.8031 365.333V365.393L43.7237 379.668L48.5288 374.009L43.704 380.898L43.5769 388.715L48.0634 381.212L43.5582 389.866L43.4872 394.212L50.0006 383.769L43.4629 395.729L43.3059 405.396Z" fill="white"/>
<path d="M132.359 388.586L135.64 386.149C135.64 386.149 137.812 398.28 135.389 400.097C132.965 401.915 123.877 404.944 123.877 408.579C123.877 412.214 103.279 417.061 102.673 411.609C102.067 406.156 104.49 403.127 104.49 403.127C104.49 403.127 114.184 393.433 115.396 391.615C116.607 389.798 119.637 386.163 119.637 386.163L132.359 388.586Z" fill="#2F2E41"/>
<path d="M83.8911 237.729C83.8911 237.729 83.982 238.262 84.1395 239.238C84.2849 240.104 84.4848 241.328 84.7272 242.837C87.2718 258.364 94.6935 304.076 94.1906 305.585C93.5847 307.402 89.3438 314.066 94.1906 315.884C94.6571 316.06 95.1599 316.629 95.6992 317.526C96.7399 319.457 97.5979 321.481 98.2619 323.572C101.152 331.957 104.242 345.377 106.029 354.671C106.811 358.754 107.344 362.038 107.501 363.758C107.556 364.156 107.562 364.559 107.519 364.958C106.913 367.381 111.154 375.863 112.972 378.287C114.79 380.71 117.819 383.133 117.213 385.557C116.607 387.98 132.359 394.645 134.177 390.404C135.994 386.163 135.994 383.739 136.6 382.528C137.206 381.316 137.812 372.834 134.783 371.622C131.753 370.411 133.571 349.206 130.542 344.965C129.53 343.553 127.985 338.773 126.367 333.023C125.731 330.77 125.089 328.371 124.459 325.965C121.902 316.108 119.636 306.19 119.636 306.19L120.242 235.306L86.9204 231.065L86.0662 232.949L84.3637 236.687L83.8911 237.729Z" fill="#2F2E41"/>
<path d="M82.0737 354.053C82.0737 354.053 77.2269 349.206 74.8035 354.053C72.3801 358.899 69.9567 377.681 65.7157 381.922C61.4748 386.163 56.0221 407.367 62.0806 408.579C68.1391 409.791 74.8035 406.762 75.4094 403.127C76.0152 399.491 88.738 380.71 88.738 378.892C88.738 377.075 80.2561 370.411 80.2561 370.411L82.0737 354.053Z" fill="#2F2E41"/>
<path d="M156.593 204.407C156.593 204.407 148.717 275.292 146.9 281.956C145.082 288.621 135.388 314.066 132.359 318.307C129.33 322.548 109.943 357.082 107.519 358.899C105.096 360.717 100.249 365.564 100.249 365.564C100.249 365.564 91.1613 374.651 89.9496 376.469C88.7379 378.287 78.4385 372.834 77.8326 369.199C77.2267 365.564 78.4385 359.505 79.0443 357.082C79.6502 354.658 77.8326 351.023 79.6502 349.206C81.4677 347.388 90.5555 338.3 90.5555 334.059C90.5555 329.818 106.308 304.979 112.366 299.526C118.425 294.073 117.213 284.986 117.213 284.986V248.029L83.8911 237.729C83.8911 237.729 85.7087 208.648 89.9496 208.648C94.1906 208.648 149.929 198.955 156.593 204.407Z" fill="#2F2E41"/>
<path d="M107.519 103.23C118.561 103.23 127.513 94.279 127.513 83.2371C127.513 72.1952 118.561 63.244 107.519 63.244C96.4776 63.244 87.5264 72.1952 87.5264 83.2371C87.5264 94.279 96.4776 103.23 107.519 103.23Z" fill="#9F616A"/>
<path d="M114.184 98.9892C114.184 98.9892 116.607 108.077 119.636 110.5C122.666 112.924 111.76 123.223 111.76 123.223L91.1615 124.435L87.5264 112.924C87.5264 112.924 94.1907 99.595 92.3732 91.1131C90.5556 82.6312 114.184 98.9892 114.184 98.9892Z" fill="#9F616A"/>
<path d="M122.666 109.289C122.666 109.289 117.213 109.895 116.001 111.712C114.79 113.53 106.308 118.982 99.6432 117.771C92.9789 116.559 88.7379 114.741 87.5262 115.347C86.3145 115.953 83.8911 128.676 83.8911 128.676L90.5555 148.063L89.3438 201.378L87.5262 215.919C87.5262 215.919 83.8911 211.072 98.4315 214.101C112.972 217.13 131.753 211.678 137.812 211.072C143.87 210.466 154.17 208.648 154.776 205.013C155.382 201.378 152.958 188.049 152.958 188.049L143.265 147.457L137.206 125.647L122.666 109.289Z" fill="#F5B400"/>
<path d="M116.935 106.554C116.935 106.554 122.06 103.836 123.877 106.259C125.695 108.683 148.717 112.318 148.717 114.135C148.717 115.953 153.564 165.027 152.352 169.268C151.141 173.509 154.776 178.356 154.776 178.356L159.017 196.531C159.017 196.531 170.528 231.065 165.681 232.276C160.834 233.488 156.593 232.276 154.776 232.276C152.958 232.276 153.564 209.254 148.717 203.196C143.871 197.137 137.206 181.991 135.994 178.962C134.783 175.932 119.636 134.129 120.242 129.282C120.848 124.435 116.935 106.554 116.935 106.554Z" fill="#D0CDE1"/>
<path d="M91.7673 109.289C91.7673 109.289 86.9205 109.289 86.3146 110.5C85.7088 111.712 79.6503 119.588 77.2268 121.406C74.8034 123.223 66.3215 131.099 66.3215 132.917C66.3215 134.734 83.8912 148.063 83.8912 148.063C83.8912 148.063 91.1614 183.808 87.5263 195.925C83.8912 208.042 78.4386 237.123 80.862 238.941C83.2854 240.758 88.738 241.364 88.738 238.941C88.738 236.517 92.3731 210.466 95.4024 205.013C98.4317 199.561 107.519 165.027 103.884 155.333C100.249 145.64 91.7673 109.289 91.7673 109.289Z" fill="#D0CDE1"/>
<path d="M171.74 169.268C171.74 169.268 172.345 188.049 165.681 197.743C159.017 207.437 154.776 218.342 154.776 218.342C154.776 218.342 143.87 215.313 142.053 211.678C140.235 208.042 128.724 211.072 128.724 209.86C128.724 208.648 142.659 202.59 143.87 201.378C145.082 200.166 149.323 200.166 151.746 197.743C154.17 195.32 154.776 189.867 154.776 189.867L157.199 174.115L171.74 169.268Z" fill="#9F616A"/>
<path d="M121.29 70.9098C122.828 70.7701 124.414 70.6164 125.773 69.8833C128.819 68.2407 129.627 63.5629 127.308 60.9941C126.669 60.3404 125.954 59.7655 125.178 59.2814L120.573 56.1468C118.536 54.7604 116.451 53.3513 114.076 52.6978C111.927 52.1067 109.658 52.1674 107.433 52.3057C103.116 52.574 98.7712 53.1284 94.7101 54.6192C90.649 56.1099 86.8606 58.6039 84.401 62.1628C80.5018 67.8046 80.4482 75.4137 82.5958 81.927C84.7434 88.4402 88.8228 94.1119 92.8424 99.6687L94.9281 89.4921C95.1139 88.5857 95.3541 87.5923 96.108 87.0558C97.9817 85.7225 100.274 88.4601 102.573 88.4423C104.051 88.4309 105.291 87.2156 105.851 85.8482C106.411 84.4808 106.448 82.9665 106.578 81.4946C106.852 78.3769 107.942 74.039 110.894 72.3196C113.645 70.7174 118.197 71.1907 121.29 70.9098Z" fill="#2F2E41"/>
<path opacity="0.1" d="M120.168 238.218C120.168 238.218 118.122 297.406 116.91 299.223C115.698 301.041 116.91 238.032 116.91 238.032L120.168 238.218Z" fill="black"/>
<path d="M143.871 114.135H148.717C148.717 114.135 169.316 142.005 166.893 143.822C164.47 145.64 166.893 150.487 166.893 150.487L171.74 159.574C171.74 159.574 177.798 165.027 175.981 166.239C174.163 167.45 171.74 172.297 171.74 172.297C171.74 172.297 159.623 170.48 155.988 177.75L148.13 167.83L143.871 114.135Z" fill="#D0CDE1"/>
<path d="M145.584 123.1L128.952 129.967L141.751 160.961L158.382 154.093L145.584 123.1Z" fill="#2F2E41"/>
<path d="M143.634 141.277C145.471 140.519 146.396 138.536 145.699 136.848C145.002 135.16 142.948 134.407 141.111 135.166C139.274 135.924 138.349 137.908 139.046 139.595C139.743 141.283 141.797 142.036 143.634 141.277Z" fill="#F5B400"/>
<path d="M131.753 162.604C131.753 162.604 88.1322 198.955 80.862 187.444C73.5918 175.932 88.7381 166.239 88.7381 166.239C88.7381 166.239 102.067 166.845 117.213 157.151L132.359 150.487C132.359 150.487 146.187 130.746 150.899 138.263C155.611 145.78 142.855 158.863 131.753 162.604Z" fill="#9F616A"/>
<path d="M72.986 130.494L66.3216 132.917V151.092L63.8982 154.728C63.8982 154.728 64.504 161.998 66.3216 163.815C68.1392 165.633 71.7743 165.027 70.5626 169.268C69.8343 172.033 69.6288 174.91 69.9567 177.75C69.9567 177.75 80.862 191.684 81.4679 189.867C82.0737 188.049 90.5556 165.633 91.7674 165.633C92.9791 165.633 79.6503 130.494 79.6503 130.494H72.986Z" fill="#D0CDE1"/>
<path d="M152.655 222.28C152.655 222.28 158.92 216.221 155.787 215.918C152.655 215.616 141.75 209.557 139.932 212.586C138.115 215.616 152.655 222.28 152.655 222.28Z" fill="#2F2E41"/>
<path d="M271.798 106.708C276.625 106.708 280.538 104.637 280.538 102.081C280.538 99.5258 276.625 97.4542 271.798 97.4542C266.971 97.4542 263.058 99.5258 263.058 102.081C263.058 104.637 266.971 106.708 271.798 106.708Z" fill="#57B894"/>
<path d="M305.215 117.504C285.507 110.061 265.8 110.061 246.093 117.504V93.3413C265.371 87.5241 285.937 87.5241 305.215 93.3413V117.504Z" stroke="white" stroke-width="1.02821" stroke-miterlimit="10"/>
<path d="M296.989 112.507C282.766 107.135 268.542 107.135 254.318 112.507V95.068C268.232 90.8694 283.075 90.8694 296.989 95.068V112.507Z" stroke="white" stroke-width="1.02821" stroke-miterlimit="10"/>
<path d="M274.883 104.652C279.709 104.652 283.622 102.58 283.622 100.025C283.622 97.4694 279.709 95.3978 274.883 95.3978C270.056 95.3978 266.143 97.4694 266.143 100.025C266.143 102.58 270.056 104.652 274.883 104.652Z" stroke="white" stroke-width="1.02821" stroke-miterlimit="10"/>
<path d="M278.224 135.685C282.954 134.72 286.373 131.907 285.862 129.404C285.351 126.9 281.103 125.653 276.374 126.618C271.644 127.583 268.225 130.395 268.736 132.899C269.247 135.403 273.495 136.65 278.224 135.685Z" fill="#57B894"/>
<path d="M313.125 139.58C292.327 136.229 273.018 140.17 255.197 151.403L250.365 127.729C268.091 118.174 288.241 114.061 308.293 115.906L313.125 139.58Z" stroke="white" stroke-width="1.02821" stroke-miterlimit="10"/>
<path d="M304.066 136.329C289.056 133.91 275.12 136.755 262.258 144.862L258.77 127.775C271.563 120.879 286.107 117.911 300.579 119.242L304.066 136.329Z" stroke="white" stroke-width="1.02821" stroke-miterlimit="10"/>
<path d="M280.835 133.053C285.565 132.088 288.984 129.276 288.473 126.772C287.962 124.268 283.714 123.021 278.985 123.986C274.256 124.951 270.836 127.764 271.347 130.267C271.858 132.771 276.106 134.018 280.835 133.053Z" stroke="white" stroke-width="1.02821" stroke-miterlimit="10"/>
<path d="M284.205 160.517C284.383 157.967 280.623 155.629 275.808 155.294C270.993 154.959 266.945 156.754 266.768 159.303C266.59 161.853 270.35 164.191 275.165 164.526C279.981 164.861 284.028 163.066 284.205 160.517Z" fill="#57B894"/>
<path d="M307.752 177.616C288.609 168.823 268.949 167.455 248.773 173.512L250.45 149.407C270.085 144.942 290.602 146.37 309.429 153.511L307.752 177.616Z" stroke="white" stroke-width="1.02821" stroke-miterlimit="10"/>
<path d="M299.893 172.06C286.077 165.713 271.888 164.726 257.325 169.098L258.536 151.7C272.708 148.478 287.515 149.508 301.104 154.663L299.893 172.06Z" stroke="white" stroke-width="1.02821" stroke-miterlimit="10"/>
<path d="M287.425 158.679C287.603 156.13 283.843 153.792 279.028 153.457C274.213 153.122 270.165 154.917 269.988 157.466C269.81 160.015 273.57 162.353 278.385 162.688C283.2 163.024 287.248 161.229 287.425 158.679Z" stroke="white" stroke-width="1.02821" stroke-miterlimit="10"/>
<path d="M237.313 118.065C237.313 118.065 199.528 112.896 172.545 128.709" stroke="white" stroke-width="1.02821" stroke-miterlimit="10"/>
<path d="M173.454 123.395L174.436 123.706L172.901 128.538L177.834 129.715L177.594 130.716L171.587 129.281L173.454 123.395Z" fill="white"/>
</g>
<defs>
<filter id="filter0_dd" x="0" y="0" width="613" height="458.09" filterUnits="userSpaceOnUse" color-interpolation-filters="sRGB">
<feFlood flood-opacity="0" result="BackgroundImageFix"/>
<feColorMatrix in="SourceAlpha" type="matrix" values="0 0 0 0 0 0 0 0 0 0 0 0 0 0 0 0 0 0 127 0"/>
<feOffset dy="16"/>
<feGaussianBlur stdDeviation="12"/>
<feColorMatrix type="matrix" values="0 0 0 0 0.196487 0 0 0 0 0.196487 0 0 0 0 0.279476 0 0 0 0.08 0"/>
<feBlend mode="multiply" in2="BackgroundImageFix" result="effect1_dropShadow"/>
<feColorMatrix in="SourceAlpha" type="matrix" values="0 0 0 0 0 0 0 0 0 0 0 0 0 0 0 0 0 0 127 0"/>
<feOffset dy="12"/>
<feGaussianBlur stdDeviation="6"/>
<feColorMatrix type="matrix" values="0 0 0 0 0.196487 0 0 0 0 0.196487 0 0 0 0 0.279476 0 0 0 0.08 0"/>
<feBlend mode="multiply" in2="effect1_dropShadow" result="effect2_dropShadow"/>
<feBlend mode="normal" in="SourceGraphic" in2="effect2_dropShadow" result="shape"/>
</filter>
<filter id="filter1_dd" x="58.3821" y="0" width="415.521" height="415.521" filterUnits="userSpaceOnUse" color-interpolation-filters="sRGB">
<feFlood flood-opacity="0" result="BackgroundImageFix"/>
<feColorMatrix in="SourceAlpha" type="matrix" values="0 0 0 0 0 0 0 0 0 0 0 0 0 0 0 0 0 0 127 0"/>
<feOffset dy="8"/>
<feGaussianBlur stdDeviation="8"/>
<feColorMatrix type="matrix" values="0 0 0 0 0.196487 0 0 0 0 0.196487 0 0 0 0 0.279476 0 0 0 0.06 0"/>
<feBlend mode="multiply" in2="BackgroundImageFix" result="effect1_dropShadow"/>
<feColorMatrix in="SourceAlpha" type="matrix" values="0 0 0 0 0 0 0 0 0 0 0 0 0 0 0 0 0 0 127 0"/>
<feOffset dy="8"/>
<feGaussianBlur stdDeviation="4"/>
<feColorMatrix type="matrix" values="0 0 0 0 0.196487 0 0 0 0 0.196487 0 0 0 0 0.279476 0 0 0 0.08 0"/>
<feBlend mode="multiply" in2="effect1_dropShadow" result="effect2_dropShadow"/>
<feBlend mode="normal" in="SourceGraphic" in2="effect2_dropShadow" result="shape"/>
</filter>
<clipPath id="clip0">
<rect width="565" height="410.09" fill="white" transform="translate(24 8)"/>
</clipPath>
</defs>
</svg>
