<svg width="61" height="60" viewBox="0 0 61 60" fill="none" xmlns="http://www.w3.org/2000/svg">
<path d="M28.7653 30.9322C29.3192 30.378 29.3192 29.4795 28.7649 28.9252C27.4021 27.5628 25.7604 26.5816 23.9691 26.0334V23.6647C23.9691 22.881 23.3337 22.2456 22.55 22.2456C21.7662 22.2456 21.1309 22.881 21.1309 23.6647V25.5392C20.9399 25.5299 20.7481 25.525 20.5555 25.525C20.3629 25.525 20.1707 25.5299 19.9797 25.5392V23.6647C19.9797 22.881 19.3444 22.2456 18.5606 22.2456C17.7769 22.2456 17.1415 22.881 17.1415 23.6647V26.0334C15.3498 26.582 13.708 27.5633 12.3453 28.9256C10.1529 31.1188 8.94507 34.0344 8.94507 37.1354C8.94507 40.236 10.1529 43.1517 12.3457 45.3448C13.708 46.7076 15.3498 47.6888 17.1415 48.2374V50.6057C17.1415 51.3895 17.7769 52.0248 18.5606 52.0248C19.3444 52.0248 19.9797 51.3895 19.9797 50.6057V48.7317C20.1707 48.741 20.3629 48.7459 20.5555 48.7459C20.7481 48.7459 20.9399 48.741 21.1309 48.7317V50.6057C21.1309 51.3895 21.7662 52.0248 22.55 52.0248C23.3337 52.0248 23.9691 51.3895 23.9691 50.6057V48.2374C25.7608 47.6888 27.4026 46.7076 28.7649 45.3448C29.3192 44.791 29.3192 43.8921 28.7649 43.3382C28.2106 42.7839 27.3125 42.7839 26.7583 43.3382C25.1011 44.9949 22.8983 45.9076 20.5555 45.9076C18.2123 45.9076 16.0094 44.9949 14.3527 43.3382C12.6956 41.6811 11.7833 39.4782 11.7833 37.1354C11.7833 34.7927 12.6956 32.5894 14.3523 30.9326C16.0094 29.2755 18.2127 28.3632 20.5555 28.3632C22.8983 28.3632 25.1011 29.2755 26.7583 30.9326C27.3125 31.4865 28.211 31.4869 28.7653 30.9322Z" fill="#F5B400"/>
<path d="M20.5552 39.2101C21.7011 39.2101 22.63 38.2812 22.63 37.1353C22.63 35.9894 21.7011 35.0605 20.5552 35.0605C19.4094 35.0605 18.4805 35.9894 18.4805 37.1353C18.4805 38.2812 19.4094 39.2101 20.5552 39.2101Z" fill="#F5B400"/>
<path d="M59.5362 28.7915H56.3229V15.6894C56.3229 14.9056 55.6875 14.2703 54.9037 14.2703H51.7817C52.0472 13.3028 52.1843 12.3038 52.1843 11.2836C52.1843 5.0618 47.1225 0 40.9007 0C34.6788 0 29.617 5.0618 29.617 11.2836C29.617 12.3074 29.7549 13.3053 30.0197 14.2703H28.9184C28.2178 8.71624 23.4678 4.40576 17.7272 4.40576C11.9867 4.40576 7.2367 8.71624 6.53606 14.2703H4.60444C2.06543 14.2703 0 16.3357 0 18.8743V55.3956C0 57.9346 2.06543 60 4.60444 60H54.9037C55.6875 60 56.3229 59.3646 56.3229 58.5809V45.2448H59.5362C60.3199 45.2448 60.9553 44.6094 60.9553 43.8257V30.2102C60.9553 29.4269 60.3199 28.7915 59.5362 28.7915ZM32.4553 11.2836C32.4553 6.62689 36.2439 2.83824 40.9007 2.83824C45.5574 2.83824 49.3461 6.62689 49.3461 11.2836C49.3461 12.3163 49.1539 13.3174 48.7926 14.2703H33.0002C32.6402 13.3207 32.4553 12.32 32.4553 11.2836ZM17.7272 7.2436C21.8995 7.2436 25.3658 10.2878 26.0437 14.2699H9.41079C10.0887 10.2878 13.555 7.2436 17.7272 7.2436ZM53.485 57.1622H4.60444C3.63052 57.1622 2.83824 56.3699 2.83824 55.396V18.8743C2.83824 17.9008 3.63052 17.1085 4.60444 17.1085H32.0567C32.0624 17.1085 32.0681 17.1097 32.0741 17.1097C32.0774 17.1097 32.081 17.1085 32.0843 17.1085H53.4846V28.7915H45.3912C41.5997 28.7915 38.5153 31.8759 38.5153 35.6674V38.3694C38.5153 42.1608 41.5997 45.2452 45.3912 45.2452H53.4846V57.1622H53.485ZM58.117 42.407H45.3912C43.1648 42.407 41.3536 40.5958 41.3536 38.3694V35.6674C41.3536 33.441 43.1648 31.6298 45.3912 31.6298H58.117V42.407Z" fill="#F5B400"/>
<path d="M47.0426 33.4287C44.9987 33.4287 43.3354 35.0919 43.3354 37.1359C43.3354 39.1798 44.9987 40.8426 47.0426 40.8426C49.0865 40.8426 50.7493 39.1798 50.7493 37.1359C50.7493 35.0919 49.0865 33.4287 47.0426 33.4287ZM47.0426 38.8149C46.1165 38.8149 45.3628 38.0615 45.3628 37.1355C45.3628 36.2094 46.1161 35.4556 47.0426 35.4556C47.9683 35.4556 48.722 36.209 48.722 37.1355C48.722 38.0611 47.9683 38.8149 47.0426 38.8149Z" fill="#F5B400"/>
</svg>
