<svg width="97" height="90" viewBox="0 0 97 90" fill="none" xmlns="http://www.w3.org/2000/svg">
<path opacity="0.2" d="M96.6667 41.6129C82.65 70.6452 75.0271 90 48.3333 90C21.6396 90 0 68.3364 0 41.6129C0 14.8894 22.6062 0 49.3 0C78.7833 47.4194 96.6667 14.8894 96.6667 41.6129Z" fill="#F5B400"/>
<path d="M61.9026 70H28.9533C26.8439 70 24.821 69.162 23.3295 67.6705C21.8379 66.179 21 64.156 21 62.0467V31.3698H23.2724V62.0467C23.2724 63.5534 23.8709 64.9983 24.9363 66.0637C26.0016 67.1291 27.4466 67.7276 28.9533 67.7276H61.9026C62.6486 67.7276 63.3873 67.5807 64.0766 67.2952C64.7658 67.0097 65.3921 66.5912 65.9196 66.0637C66.4471 65.5362 66.8656 64.9099 67.1511 64.2207C67.4366 63.5314 67.5835 62.7927 67.5835 62.0467V54.0934H69.8559V62.0467C69.8559 64.156 69.0179 66.179 67.5264 67.6705C66.0349 69.162 64.0119 70 61.9026 70Z" fill="#4F4F4F"/>
<path d="M69.8559 48.4125H67.5835V43.6974C67.5835 41.9346 66.8832 40.2439 65.6367 38.9975C64.3903 37.751 62.6996 37.0507 60.9368 37.0507H26.6809V34.7783H60.9368C63.3014 34.7813 65.5682 35.722 67.2402 37.394C68.9122 39.066 69.8529 41.3328 69.8559 43.6974V48.4125Z" fill="#4F4F4F"/>
<path d="M69.8559 42.7316H67.5835V33.6421C67.5835 32.8961 67.4366 32.1574 67.1511 31.4681C66.8656 30.7789 66.4471 30.1526 65.9196 29.6251C65.3921 29.0976 64.7658 28.6791 64.0766 28.3936C63.3874 28.1081 62.6486 27.9612 61.9026 27.9612H58.494V25.6888H61.9026C64.0119 25.6888 66.0349 26.5268 67.5264 28.0183C69.0179 29.5098 69.8559 31.5328 69.8559 33.6421V42.7316Z" fill="#4F4F4F"/>
<path d="M26.6809 37.0507C25.1742 37.0507 23.7293 36.4522 22.6639 35.3868C21.5985 34.3214 21 32.8764 21 31.3698C21 29.8631 21.5985 28.4181 22.6639 27.3527C23.7293 26.2874 25.1742 25.6888 26.6809 25.6888H32.3618V27.9612H26.6809C25.7769 27.9612 24.9099 28.3203 24.2707 28.9595C23.6315 29.5988 23.2724 30.4658 23.2724 31.3698C23.2724 32.2738 23.6315 33.1407 24.2707 33.78C24.9099 34.4192 25.7769 34.7783 26.6809 34.7783V37.0507Z" fill="#4F4F4F"/>
<path d="M72.1282 55.2296H55.6536C54.5989 55.2296 53.5874 54.8107 52.8417 54.0649C52.0959 53.3191 51.6769 52.3076 51.6769 51.253C51.6769 50.1983 52.0959 49.1868 52.8417 48.4411C53.5874 47.6953 54.5989 47.2763 55.6536 47.2763H68.7197V49.5487H55.6536C55.2016 49.5487 54.7681 49.7283 54.4485 50.0479C54.1289 50.3675 53.9493 50.801 53.9493 51.253C53.9493 51.705 54.1289 52.1385 54.4485 52.4581C54.7681 52.7777 55.2016 52.9573 55.6536 52.9573H72.1282C72.4296 52.9573 72.7186 52.8375 72.9316 52.6245C73.1447 52.4114 73.2644 52.1224 73.2644 51.8211V45.004H75.5368V51.8211C75.5368 52.7251 75.1777 53.592 74.5385 54.2313C73.8992 54.8705 73.0322 55.2296 72.1282 55.2296Z" fill="#4F4F4F"/>
<path d="M71.8556 49.5487H68.7197C68.4184 49.5487 68.1294 49.429 67.9163 49.2159C67.7032 49.0028 67.5835 48.7138 67.5835 48.4125V42.7316C67.5835 42.4302 67.7032 42.1413 67.9163 41.9282C68.1294 41.7151 68.4184 41.5954 68.7197 41.5954H71.8556C72.8319 41.5954 73.7682 41.9832 74.4586 42.6736C75.1489 43.364 75.5368 44.3003 75.5368 45.2766V45.8788C75.5308 46.8522 75.1407 47.7839 74.4513 48.4712C73.7619 49.1585 72.829 49.5457 71.8556 49.5487ZM69.8559 47.2763H71.8556C72.2273 47.2763 72.5839 47.1295 72.8478 46.8677C73.1117 46.6059 73.2614 46.2505 73.2644 45.8788V45.2766C73.2615 44.9039 73.1121 44.5473 72.8485 44.2837C72.5849 44.0201 72.2283 43.8707 71.8556 43.8678H69.8559V47.2763Z" fill="#4F4F4F"/>
<path d="M55.6081 36.4258L53.563 35.4032C54.1298 34.2861 54.4597 33.0639 54.5317 31.8132C54.6038 30.5626 54.4166 29.3106 53.9819 28.1357C53.5471 26.9609 52.8742 25.8886 52.0054 24.9861C51.1366 24.0837 50.0906 23.3705 48.9331 22.8915C47.7755 22.4125 46.5315 22.1779 45.279 22.2025C44.0266 22.227 42.7927 22.5103 41.6549 23.0343C40.5171 23.5584 39.4998 24.312 38.6671 25.2478C37.8343 26.1836 37.204 27.2815 36.8156 28.4725C36.4304 29.6034 36.2741 30.7997 36.3561 31.9915C36.438 33.1834 36.7564 34.3471 37.2928 35.4146L35.2477 36.4144C33.9083 33.7145 33.6963 30.593 34.6583 27.7367C35.6203 24.8804 37.6776 22.5233 40.3776 21.1839C43.0775 19.8445 46.199 19.6324 49.0553 20.5945C51.9116 21.5565 54.2687 23.6138 55.6081 26.3138C56.3821 27.8868 56.7846 29.6166 56.7846 31.3698C56.7846 33.1229 56.3821 34.8527 55.6081 36.4258Z" fill="#4F4F4F"/>
<path d="M51.018 32.7332L48.9956 31.7106C49.2616 31.1614 49.4013 30.5597 49.4046 29.9495C49.4031 29.7249 49.3841 29.5008 49.3478 29.2792L51.6202 28.9156C51.6744 29.2575 51.701 29.6033 51.6997 29.9495C51.6903 30.9176 51.457 31.8703 51.018 32.7332Z" fill="#4F4F4F"/>
<path d="M39.838 32.7332C39.0932 31.2562 38.9644 29.5442 39.4798 27.9724C39.9952 26.4006 41.1128 25.0973 42.5875 24.3482C43.5752 23.8558 44.6755 23.6332 45.7769 23.703C46.8783 23.7729 47.9417 24.1326 48.8592 24.7458L47.6322 26.6319C47.0486 26.242 46.3723 26.0136 45.6718 25.9697C44.9714 25.9258 44.2718 26.068 43.6442 26.3819C43.1782 26.6094 42.7624 26.9275 42.421 27.3177C42.0796 27.7079 41.8194 28.1623 41.6558 28.6543C41.4881 29.1484 41.4197 29.6709 41.4548 30.1916C41.4899 30.7122 41.6278 31.2208 41.8604 31.6879L39.838 32.7332Z" fill="#4F4F4F"/>
<path d="M61.8117 39.3231H28.9533V41.5954H61.8117V39.3231Z" fill="#4F4F4F"/>
<path d="M61.8117 63.1829H28.9533V65.4553H61.8117V63.1829Z" fill="#4F4F4F"/>
</svg>
