<svg width="27" height="20" viewBox="0 0 27 20" fill="none" xmlns="http://www.w3.org/2000/svg">
<path d="M26.375 4.6875C26.5833 6.14583 26.6875 7.58333 26.6875 9V11L26.375 15.3125C26.2083 16.5208 25.8542 17.3958 25.3125 17.9375C24.7292 18.5208 23.8542 18.8958 22.6875 19.0625C21.5625 19.1458 20.2188 19.2083 18.6562 19.25C17.0938 19.2917 15.8125 19.3125 14.8125 19.3125H13.3125C8.6875 19.2708 5.66667 19.1875 4.25 19.0625L3.75 19L2.9375 18.875L2.15625 18.5625L1.34375 17.9375L0.71875 16.9062L0.375 15.75L0.25 15.3125C0.0833333 13.8542 0 12.4167 0 11V9L0.25 4.6875C0.416667 3.47917 0.770833 2.60417 1.3125 2.0625C1.89583 1.4375 2.79167 1.0625 4 0.9375C5.125 0.854167 6.45833 0.791667 8 0.75C9.54167 0.708333 10.8125 0.6875 11.8125 0.6875H13.3125C17.0625 0.6875 20.1875 0.770833 22.6875 0.9375C23.8542 1.0625 24.7292 1.4375 25.3125 2.0625C25.4792 2.22917 25.625 2.42708 25.75 2.65625C25.875 2.88542 25.9792 3.11458 26.0625 3.34375C26.1458 3.57292 26.2083 3.79167 26.25 4C26.2917 4.20833 26.3333 4.375 26.375 4.5V4.6875ZM16.9375 10.1875L17.8125 9.75L10.625 6V13.5L16.9375 10.1875Z" fill="#171F51"/>
</svg>
