<svg width="27" height="24" viewBox="0 0 27 24" fill="none" xmlns="http://www.w3.org/2000/svg">
<path d="M26.375 6.6875C26.5833 8.14583 26.6875 9.58333 26.6875 11V13L26.375 17.3125C26.2083 18.5208 25.8542 19.3958 25.3125 19.9375C24.7292 20.5208 23.8542 20.8958 22.6875 21.0625C21.5625 21.1458 20.2188 21.2083 18.6562 21.25C17.0938 21.2917 15.8125 21.3125 14.8125 21.3125H13.3125C8.6875 21.2708 5.66667 21.1875 4.25 21.0625L3.75 21L2.9375 20.875L2.15625 20.5625L1.34375 19.9375L0.71875 18.9062L0.375 17.75L0.25 17.3125C0.0833333 15.8542 0 14.4167 0 13V11L0.25 6.6875C0.416667 5.47917 0.770833 4.60417 1.3125 4.0625C1.89583 3.4375 2.79167 3.0625 4 2.9375C5.125 2.85417 6.45833 2.79167 8 2.75C9.54167 2.70833 10.8125 2.6875 11.8125 2.6875H13.3125C17.0625 2.6875 20.1875 2.77083 22.6875 2.9375C23.8542 3.0625 24.7292 3.4375 25.3125 4.0625C25.4792 4.22917 25.625 4.42708 25.75 4.65625C25.875 4.88542 25.9792 5.11458 26.0625 5.34375C26.1458 5.57292 26.2083 5.79167 26.25 6C26.2917 6.20833 26.3333 6.375 26.375 6.5V6.6875ZM16.9375 12.1875L17.8125 11.75L10.625 8V15.5L16.9375 12.1875Z" fill="#F5B400"/>
</svg>
