<svg width="153" height="48" viewBox="0 0 153 48" fill="none" xmlns="http://www.w3.org/2000/svg">
<g clip-path="url(#clip0)">
<path d="M80.8703 12.0056C80.8703 13.7275 79.4887 15.1146 77.7736 15.1146C76.0585 15.1146 74.6769 13.7275 74.6769 12.0056C74.6769 10.2837 76.0109 8.8966 77.7736 8.8966C79.5364 8.94443 80.8703 10.3315 80.8703 12.0056ZM68.1024 18.2715C68.1024 18.5585 68.1024 19.0368 68.1024 19.0368C68.1024 19.0368 66.6255 17.1236 63.4812 17.1236C58.2883 17.1236 54.2388 21.0935 54.2388 26.5941C54.2388 32.0469 58.2407 36.0647 63.4812 36.0647C66.6732 36.0647 68.1024 34.1036 68.1024 34.1036V34.9167C68.1024 35.2994 68.3883 35.5864 68.7694 35.5864H72.6284V17.6019C72.6284 17.6019 69.1029 17.6019 68.7694 17.6019C68.3883 17.6019 68.1024 17.9367 68.1024 18.2715ZM68.1024 29.7988C67.3878 30.8511 65.9586 31.7599 64.2435 31.7599C61.1944 31.7599 58.86 29.8466 58.86 26.5941C58.86 23.3416 61.1944 21.4284 64.2435 21.4284C65.9109 21.4284 67.4354 22.385 68.1024 23.3894V29.7988ZM75.4868 17.6019H80.0604V35.5864H75.4868V17.6019ZM143.805 17.1236C140.66 17.1236 139.183 19.0368 139.183 19.0368V8.94443H134.61V35.5864C134.61 35.5864 138.135 35.5864 138.469 35.5864C138.85 35.5864 139.136 35.2516 139.136 34.9167V34.1036C139.136 34.1036 140.613 36.0647 143.757 36.0647C148.95 36.0647 152.999 32.0469 152.999 26.5941C152.999 21.1414 148.95 17.1236 143.805 17.1236ZM143.042 31.7121C141.28 31.7121 139.898 30.8033 139.183 29.751V23.3416C139.898 22.385 141.423 21.3805 143.042 21.3805C146.091 21.3805 148.426 23.2938 148.426 26.5463C148.426 29.7988 146.091 31.7121 143.042 31.7121ZM132.228 24.92V35.6342H127.654V25.4462C127.654 22.4806 126.701 21.2849 124.129 21.2849C122.747 21.2849 121.318 22.0023 120.413 23.0546V35.5864H115.839V17.6019H119.46C119.841 17.6019 120.127 17.9367 120.127 18.2715V19.0368C121.461 17.6497 123.223 17.1236 124.986 17.1236C126.987 17.1236 128.655 17.6975 129.989 18.8455C131.608 20.1848 132.228 21.9067 132.228 24.92ZM104.739 17.1236C101.594 17.1236 100.117 19.0368 100.117 19.0368V8.94443H95.5439V35.5864C95.5439 35.5864 99.0693 35.5864 99.4028 35.5864C99.7839 35.5864 100.07 35.2516 100.07 34.9167V34.1036C100.07 34.1036 101.547 36.0647 104.691 36.0647C109.884 36.0647 113.933 32.0469 113.933 26.5941C113.981 21.1414 109.932 17.1236 104.739 17.1236ZM103.976 31.7121C102.214 31.7121 100.832 30.8033 100.117 29.751V23.3416C100.832 22.385 102.357 21.3805 103.976 21.3805C107.025 21.3805 109.36 23.2938 109.36 26.5463C109.36 29.7988 107.025 31.7121 103.976 31.7121ZM91.5896 17.1236C92.9712 17.1236 93.6858 17.3627 93.6858 17.3627V21.6197C93.6858 21.6197 89.8745 20.3282 87.4925 23.0546V35.6342H82.9189V17.6019C82.9189 17.6019 86.4444 17.6019 86.7778 17.6019C87.159 17.6019 87.4448 17.9367 87.4448 18.2715V19.0368C88.3024 18.0323 90.1604 17.1236 91.5896 17.1236ZM44.0912 33.9601C43.853 33.3862 43.6148 32.7643 43.3766 32.2382C42.9954 31.3772 42.6143 30.5641 42.2808 29.7988L42.2332 29.751C38.9459 22.5763 35.4205 15.306 31.7044 8.1313L31.5615 7.84431C31.1804 7.12684 30.7992 6.36154 30.4181 5.59625C29.9417 4.73529 29.4653 3.82649 28.703 2.96553C27.1785 1.05229 24.987 0 22.6526 0C20.2705 0 18.1266 1.05229 16.5545 2.86987C15.8399 3.73083 15.3158 4.63962 14.8394 5.50058C14.4583 6.26588 14.0771 7.03118 13.696 7.74865L13.5531 8.03563C9.88468 15.2103 6.31158 22.4806 3.02432 29.6553L2.97668 29.751C2.64319 30.5163 2.26206 31.3294 1.88093 32.1904C1.64272 32.7165 1.40452 33.2905 1.16631 33.9123C0.546973 35.682 0.356407 37.3561 0.594614 39.0781C1.11867 42.6654 3.50074 45.6788 6.78799 47.018C8.02667 47.5442 9.31298 47.7833 10.6469 47.7833C11.0281 47.7833 11.5045 47.7355 11.8856 47.6877C13.4578 47.4963 15.0776 46.9702 16.6498 46.0614C18.6031 44.9613 20.4611 43.3829 22.5573 41.087C24.6535 43.3829 26.5592 44.9613 28.4648 46.0614C30.037 46.9702 31.6568 47.4963 33.2289 47.6877C33.6101 47.7355 34.0865 47.7833 34.4676 47.7833C35.8016 47.7833 37.1355 47.5442 38.3266 47.018C41.6615 45.6788 43.9959 42.6176 44.52 39.0781C44.9011 37.404 44.7105 35.7299 44.0912 33.9601ZM22.6049 36.4473C20.0323 33.1948 18.3648 30.1336 17.7931 27.5507C17.5549 26.4506 17.5073 25.494 17.6502 24.633C17.7455 23.8678 18.0314 23.1981 18.4125 22.6241C19.3177 21.3327 20.8422 20.5196 22.6049 20.5196C24.3677 20.5196 25.9398 21.2849 26.7974 22.6241C27.1785 23.1981 27.4643 23.8678 27.5596 24.633C27.7026 25.494 27.6549 26.4985 27.4167 27.5507C26.845 30.0858 25.1776 33.147 22.6049 36.4473ZM41.6138 38.6954C41.2803 41.1826 39.6129 43.335 37.2785 44.2917C36.1351 44.77 34.8964 44.9135 33.6577 44.77C32.4667 44.6265 31.2757 44.2438 30.037 43.5264C28.3219 42.5697 26.6068 41.087 24.6059 38.8867C27.7502 35.0124 29.6558 31.4729 30.3705 28.316C30.704 26.8333 30.7516 25.494 30.6087 24.2504C30.4181 23.0546 29.9893 21.9545 29.3224 20.9979C27.8455 18.8455 25.3681 17.6019 22.6049 17.6019C19.8417 17.6019 17.3644 18.8933 15.8875 20.9979C15.2205 21.9545 14.7917 23.0546 14.6012 24.2504C14.4106 25.494 14.4583 26.8811 14.8394 28.316C15.554 31.4729 17.5073 35.0602 20.604 38.9346C18.6507 41.1348 16.888 42.6176 15.1729 43.5742C13.9342 44.2917 12.7432 44.6743 11.5521 44.8178C10.2658 44.9613 9.02714 44.77 7.93138 44.3395C5.59696 43.3829 3.92951 41.2305 3.59602 38.7432C3.4531 37.5475 3.54838 36.3517 4.02479 35.0124C4.16772 34.5341 4.40592 34.0558 4.64413 33.4818C4.97762 32.7165 5.35875 31.9034 5.73988 31.0903L5.78752 30.9946C9.07478 23.8678 12.6002 16.5974 16.2686 9.5184L16.4115 9.23141C16.7927 8.51395 17.1738 7.74865 17.5549 7.03118C17.9361 6.26588 18.3648 5.54842 18.8889 4.92661C19.8894 3.77866 21.2233 3.15686 22.7002 3.15686C24.1771 3.15686 25.511 3.77866 26.5115 4.92661C27.0356 5.54842 27.4643 6.26588 27.8455 7.03118C28.2266 7.74865 28.6077 8.51395 28.9889 9.23141L29.1318 9.5184C32.7525 16.6452 36.278 23.9156 39.5653 31.0424V31.0903C39.9464 31.8556 40.2799 32.7165 40.661 33.4818C40.8992 34.0558 41.1374 34.5341 41.2803 35.0124C41.6615 36.256 41.8044 37.4518 41.6138 38.6954Z" fill="#FF5A5F"/>
</g>
<defs>
<clipPath id="clip0">
<rect width="152.5" height="47.7833" fill="white" transform="translate(0.5)"/>
</clipPath>
</defs>
</svg>
