<svg width="153" height="35" viewBox="0 0 153 35" fill="none" xmlns="http://www.w3.org/2000/svg">
<g clip-path="url(#clip0)">
<path d="M61.6907 20.3604L59.0361 13.099C58.9278 12.802 58.5138 12.802 58.4052 13.099L55.7511 20.3609C55.7322 20.4125 55.726 20.468 55.7328 20.5226C55.7397 20.5772 55.7594 20.6293 55.7904 20.6745C55.8214 20.7196 55.8627 20.7565 55.9108 20.782C55.9589 20.8075 56.0124 20.8208 56.0666 20.8208H61.3752C61.4294 20.8208 61.4829 20.8074 61.531 20.7819C61.579 20.7564 61.6203 20.7195 61.6513 20.6743C61.6823 20.6291 61.702 20.577 61.7088 20.5223C61.7157 20.4677 61.7094 20.4122 61.6905 20.3606L61.6907 20.3604ZM62.917 24.4419H54.525C54.4564 24.442 54.3893 24.4633 54.333 24.5031C54.2766 24.5429 54.2336 24.5992 54.2097 24.6645L52.5575 29.1828C52.5336 29.2481 52.4906 29.3044 52.4343 29.3442C52.3779 29.384 52.3109 29.4053 52.2422 29.4053H48.6049C48.5499 29.4053 48.4957 29.3916 48.4472 29.3655C48.3986 29.3393 48.3571 29.3014 48.3263 29.2552C48.2955 29.209 48.2763 29.1558 48.2705 29.1004C48.2646 29.0449 48.2722 28.9888 48.2927 28.937L56.667 7.76758C56.692 7.70435 56.7352 7.65018 56.7909 7.61206C56.8465 7.57393 56.9122 7.5536 56.9794 7.55366H60.4622C60.5994 7.55366 60.723 7.63832 60.7744 7.76758L69.1484 28.9368C69.169 28.9886 69.1767 29.0447 69.1709 29.1003C69.165 29.1558 69.1459 29.209 69.1151 29.2553C69.0843 29.3016 69.0427 29.3395 68.9941 29.3657C68.9455 29.3919 68.8913 29.4056 68.8362 29.4056H65.1996C65.1309 29.4055 65.0638 29.3842 65.0075 29.3443C64.9511 29.3045 64.9081 29.2481 64.8842 29.1828L63.2319 24.6645C63.208 24.5992 63.165 24.5429 63.1086 24.5031C63.0522 24.4633 62.9852 24.442 62.9166 24.4419H62.917ZM70.8526 14.983H73.9636C74.0528 14.983 74.1384 15.019 74.2015 15.083C74.2646 15.147 74.3 15.2339 74.3 15.3244V29.064C74.3 29.1545 74.2646 29.2413 74.2015 29.3054C74.1384 29.3694 74.0528 29.4053 73.9636 29.4053H70.8526C70.7634 29.4053 70.6778 29.3694 70.6147 29.3054C70.5516 29.2413 70.5162 29.1545 70.5162 29.064V15.3242C70.5162 15.2336 70.5516 15.1468 70.6147 15.0828C70.6778 15.0188 70.7634 14.9828 70.8526 14.9828V14.983ZM85.646 18.3252C85.646 18.4157 85.6106 18.5026 85.5475 18.5666C85.4844 18.6306 85.3988 18.6666 85.3096 18.6666H85.2154C83.6772 18.6666 82.5489 19.0412 81.8313 19.7903C81.1132 20.5395 80.7548 21.778 80.7548 23.5052V29.064C80.7548 29.1545 80.7193 29.2413 80.6563 29.3054C80.5932 29.3694 80.5076 29.4053 80.4184 29.4053H77.3379C77.2487 29.4053 77.1631 29.3694 77.1 29.3054C77.0369 29.2413 77.0015 29.1545 77.0015 29.064V15.3242C77.0015 15.2336 77.0369 15.1468 77.1 15.0828C77.1631 15.0188 77.2487 14.9828 77.3379 14.9828H80.3874C80.4767 14.9828 80.5622 15.0188 80.6253 15.0828C80.6884 15.1468 80.7238 15.2336 80.7238 15.3242V18.0419H80.7855C81.1547 16.9181 81.7391 16.0549 82.5393 15.4509C83.3388 14.8476 84.3233 14.5457 85.4922 14.5457H85.646V18.325V18.3252ZM94.1524 18.1982C94.0631 18.1982 93.9776 18.2342 93.9145 18.2982C93.8514 18.3622 93.816 18.449 93.816 18.5396V24.2544C93.816 24.8372 93.9281 25.2535 94.1542 25.5031C94.3795 25.7528 94.7693 25.8777 95.323 25.8777H95.6327C95.722 25.8777 95.8075 25.9137 95.8706 25.9777C95.9337 26.0417 95.9691 26.1285 95.9691 26.2191V29.0949C95.9691 29.1855 95.9337 29.2723 95.8706 29.3363C95.8075 29.4003 95.722 29.4363 95.6327 29.4363H94.3078C92.9337 29.4363 91.8776 29.0774 91.1394 28.3594C90.4009 27.6414 90.0317 26.5752 90.0317 25.1597V18.5396C90.0317 18.449 89.9963 18.3622 89.9332 18.2982C89.8701 18.2342 89.7845 18.1982 89.6953 18.1982H87.7534C87.6642 18.1982 87.5786 18.1623 87.5155 18.0982C87.4525 18.0342 87.417 17.9474 87.417 17.8569V15.3242C87.417 15.2336 87.4525 15.1468 87.5155 15.0828C87.5786 15.0188 87.6642 14.9828 87.7534 14.9828H89.6955C89.7848 14.9828 89.8703 14.9469 89.9334 14.8828C89.9965 14.8188 90.0319 14.732 90.0319 14.6415V9.54903C90.0319 9.4585 90.0674 9.37167 90.1305 9.30765C90.1936 9.24364 90.2791 9.20767 90.3683 9.20767H93.4793C93.5686 9.20767 93.6541 9.24364 93.7172 9.30765C93.7803 9.37167 93.8157 9.4585 93.8157 9.54903V14.6415C93.8157 14.732 93.8512 14.8188 93.9143 14.8828C93.9774 14.9469 94.0629 14.9828 94.1521 14.9828H96.4017C96.491 14.9828 96.5765 15.0188 96.6396 15.0828C96.7027 15.1468 96.7381 15.2336 96.7381 15.3242V17.8571C96.7381 17.9476 96.7027 18.0344 96.6396 18.0985C96.5765 18.1625 96.491 18.1984 96.4017 18.1984H94.1524V18.1982ZM108.398 25.1285C109.105 24.3794 109.459 23.4012 109.459 22.194C109.459 20.9874 109.105 20.0088 108.398 19.2596C107.69 18.5104 106.762 18.1359 105.614 18.1359C104.465 18.1359 103.537 18.5104 102.83 19.2596C102.122 20.0088 101.768 20.9874 101.768 22.194C101.768 23.4012 102.122 24.3794 102.83 25.1285C103.537 25.8777 104.465 26.2523 105.614 26.2523C106.762 26.2523 107.69 25.8777 108.398 25.1285ZM101.215 28.9682C100.169 28.3649 99.343 27.4853 98.7383 26.3304C98.1331 25.1754 97.8307 23.7968 97.8307 22.194C97.8307 20.5918 98.1331 19.2127 98.7383 18.0578C99.343 16.9029 100.169 16.024 101.215 15.42C102.261 14.8165 103.409 14.5147 104.66 14.5147C105.767 14.5147 106.716 14.7332 107.506 15.1701C108.295 15.6071 108.926 16.2213 109.398 17.0121H109.459V15.3242C109.459 15.2336 109.495 15.1468 109.558 15.0828C109.621 15.0188 109.706 14.9828 109.795 14.9828H112.876C112.965 14.9828 113.051 15.0188 113.114 15.0828C113.177 15.1468 113.212 15.2336 113.212 15.3242V29.0637C113.212 29.1543 113.177 29.2411 113.114 29.3051C113.051 29.3691 112.965 29.4051 112.876 29.4051H109.795C109.706 29.4051 109.621 29.3691 109.558 29.3051C109.495 29.2411 109.459 29.1543 109.459 29.0637V27.3761H109.398C108.926 28.1673 108.295 28.7809 107.506 29.2178C106.716 29.6548 105.768 29.8732 104.66 29.8732C103.409 29.8732 102.261 29.5715 101.215 28.9682ZM126.023 25.1285C126.73 24.3794 127.084 23.4012 127.084 22.194C127.084 20.9874 126.73 20.0088 126.023 19.2596C125.316 18.5104 124.387 18.1359 123.239 18.1359C122.09 18.1359 121.162 18.5104 120.455 19.2596C119.747 20.0088 119.393 20.9874 119.393 22.194C119.393 23.4012 119.747 24.3794 120.455 25.1285C121.162 25.8777 122.09 26.2523 123.239 26.2523C124.387 26.2523 125.316 25.8777 126.023 25.1285ZM121.347 29.2178C120.557 28.7809 119.926 28.1673 119.455 27.3761H119.393V29.0637C119.393 29.1543 119.358 29.2411 119.295 29.3051C119.232 29.3691 119.146 29.4051 119.057 29.4051H115.946C115.857 29.4051 115.771 29.3691 115.708 29.3051C115.645 29.2411 115.61 29.1543 115.61 29.0637V7.89434C115.61 7.80381 115.645 7.71698 115.708 7.65296C115.771 7.58894 115.857 7.55298 115.946 7.55298H119.057C119.146 7.55298 119.232 7.58894 119.295 7.65296C119.358 7.71698 119.393 7.80381 119.393 7.89434V17.0119H119.455C119.926 16.2211 120.557 15.6071 121.347 15.1701C122.136 14.7329 123.085 14.5145 124.193 14.5145C125.443 14.5145 126.592 14.8162 127.638 15.4198C128.684 16.0237 129.509 16.9026 130.114 18.0573C130.719 19.213 131.022 20.5921 131.022 22.1942C131.022 23.797 130.719 25.1754 130.115 26.3306C129.509 27.4855 128.684 28.3651 127.638 28.9682C126.592 29.5717 125.444 29.8737 124.193 29.8737C123.085 29.8737 122.137 29.6552 121.347 29.218L121.347 29.2178ZM136.264 29.4053H133.153C133.063 29.4053 132.978 29.3694 132.915 29.3054C132.852 29.2413 132.816 29.1545 132.816 29.064V7.89502C132.816 7.80449 132.852 7.71766 132.915 7.65364C132.978 7.58963 133.063 7.55366 133.153 7.55366H136.264C136.353 7.55366 136.438 7.58963 136.502 7.65364C136.565 7.71766 136.6 7.80449 136.6 7.89502V29.064C136.6 29.1545 136.565 29.2413 136.502 29.3054C136.438 29.3694 136.353 29.4053 136.264 29.4053ZM143.602 18.3234C143.086 18.7317 142.738 19.3211 142.558 20.0921C142.508 20.3046 142.672 20.5085 142.887 20.5085H148.807C149.013 20.5085 149.174 20.3219 149.141 20.1162C149.023 19.3868 148.715 18.8054 148.217 18.3703C147.632 17.8605 146.868 17.6056 145.925 17.6056C144.981 17.6056 144.207 17.8448 143.602 18.3234ZM151.185 16.5283C152.395 17.871 153 19.7701 153 22.2254V22.6332C153 22.7237 152.965 22.8105 152.902 22.8746C152.838 22.9386 152.753 22.9745 152.664 22.9745H142.773C142.723 22.9746 142.675 22.9857 142.63 23.0068C142.586 23.028 142.546 23.0588 142.514 23.097C142.483 23.1353 142.459 23.1801 142.447 23.2284C142.434 23.2766 142.431 23.3272 142.44 23.3764C142.598 24.2886 142.995 25.0132 143.633 25.55C144.361 26.1645 145.279 26.471 146.386 26.471C147.816 26.471 149.139 25.9048 150.356 24.7722C150.505 24.6338 150.74 24.6631 150.856 24.8313L152.368 27.0342C152.416 27.1028 152.436 27.1866 152.427 27.2697C152.417 27.3529 152.378 27.4296 152.317 27.4853C151.574 28.1447 150.749 28.7011 149.862 29.14C148.878 29.6288 147.719 29.8737 146.386 29.8737C144.848 29.8737 143.504 29.556 142.356 28.9215C141.207 28.287 140.315 27.3922 139.68 26.2368C139.044 25.0819 138.726 23.7449 138.726 22.2254C138.726 20.7065 139.034 19.3643 139.649 18.1984C140.264 17.0333 141.125 16.128 142.233 15.4826C143.341 14.8379 144.633 14.5149 146.109 14.5149C148.282 14.5149 149.975 15.1863 151.185 16.5283ZM74.7064 9.90359C74.7064 11.1912 73.6777 12.2351 72.4086 12.2351C71.1392 12.2351 70.1105 11.1912 70.1105 9.90336C70.1105 8.61552 71.1394 7.57164 72.4086 7.57164C73.6777 7.57164 74.7064 8.61552 74.7064 9.90336" fill="#333333"/>
<path d="M18.2168 1.39642L3.42433 7.6076C2.60173 7.95306 2.61025 9.13895 3.43801 9.47189L18.2922 15.4494C19.5973 15.9746 21.0507 15.9746 22.3559 15.4494L37.2103 9.47167C38.0378 9.13895 38.0468 7.95329 37.2237 7.60783L22.4317 1.39619C21.0821 0.829524 19.5661 0.829524 18.2166 1.39619" fill="#FCB400"/>
<path d="M21.6418 18.713V33.6457C21.6418 34.3557 22.3476 34.8423 22.9982 34.5806L39.5503 28.061C39.7349 27.9868 39.8932 27.858 40.0048 27.6913C40.1164 27.5246 40.176 27.3277 40.176 27.1262V12.1937C40.176 11.4834 39.4702 10.9971 38.8196 11.2588L22.2675 17.7783C22.083 17.8526 21.9246 17.9815 21.8131 18.1482C21.7015 18.3149 21.6419 18.5117 21.6418 18.7132" fill="#18BFFF"/>
<path d="M17.7769 19.4836L12.8646 21.8904L12.3658 22.1351L1.99629 27.177C1.3392 27.4988 0.5 27.0127 0.5 26.2717V12.2563C0.5 11.9882 0.635456 11.7568 0.81711 11.5827C0.891633 11.5074 0.97618 11.443 1.06829 11.3915C1.31588 11.2406 1.66932 11.2004 1.96983 11.321L17.6944 17.6434C18.4937 17.9652 18.5564 19.1017 17.7769 19.4838" fill="#F82B60"/>
<path d="M17.7767 19.4836L12.8644 21.8904L0.816895 11.5825C0.891432 11.5072 0.975978 11.443 1.06807 11.3915C1.31566 11.2406 1.6691 11.2004 1.96961 11.321L17.6942 17.6434C18.4934 17.9652 18.5562 19.1017 17.7767 19.4838" fill="black" fill-opacity="0.25"/>
</g>
<defs>
<clipPath id="clip0">
<rect width="152.5" height="33.681" fill="white" transform="translate(0.5 0.971436)"/>
</clipPath>
</defs>
</svg>
