<svg width="153" height="34" viewBox="0 0 153 34" fill="none" xmlns="http://www.w3.org/2000/svg">
<g clip-path="url(#clip0)">
<path d="M53.8294 19.5809L52.9205 22.1533H52.8447C52.6932 21.5733 52.4155 20.6906 51.961 19.6313L47.0881 7.39982H42.3162V26.8946H45.4722V14.8648C45.4722 14.1082 45.4722 13.2508 45.447 12.1916C45.4217 11.6619 45.3712 11.2584 45.346 10.9558H45.4217C45.5732 11.7124 45.7499 12.2672 45.8762 12.6203L51.7338 26.8442H53.9556L59.7628 12.4942C59.889 12.1663 60.0152 11.5106 60.1415 10.9558H60.2172C60.1415 12.3933 60.091 13.6795 60.0657 14.4613V26.8189H63.4238V7.34938H58.8286L53.8294 19.5809ZM66.6051 12.8473H69.8874V26.8189H66.6051V12.8473ZM68.2715 6.94587C67.716 6.94587 67.2615 7.14763 66.8828 7.5007C66.5041 7.85378 66.3021 8.30773 66.3021 8.86256C66.3021 9.39217 66.5041 9.84613 66.8828 10.1992C67.2615 10.5523 67.716 10.7288 68.2715 10.7288C68.8269 10.7288 69.3066 10.5271 69.6601 10.1992C70.0388 9.84613 70.2408 9.39217 70.2408 8.86256C70.2408 8.33295 70.0388 7.879 69.6601 7.5007C69.3319 7.14763 68.8522 6.94587 68.2715 6.94587ZM81.5268 12.7212C80.9209 12.5951 80.2897 12.5194 79.6837 12.5194C78.1941 12.5194 76.8306 12.8473 75.6945 13.503C74.5583 14.1587 73.6494 15.0666 73.0686 16.2015C72.4627 17.3616 72.1597 18.6982 72.1597 20.2366C72.1597 21.5733 72.4627 22.7586 73.0434 23.843C73.6241 24.9023 74.4321 25.7597 75.5177 26.3398C76.5529 26.9198 77.7648 27.2225 79.1282 27.2225C80.6936 27.2225 82.0318 26.8946 83.0922 26.2893L83.1175 26.2641V23.2378L82.9912 23.3386C82.5115 23.6917 81.9561 23.9943 81.4006 24.1709C80.8199 24.3726 80.2897 24.4735 79.8352 24.4735C78.5223 24.4735 77.4871 24.0952 76.7549 23.263C75.9975 22.4559 75.6187 21.3463 75.6187 19.9592C75.6187 18.5217 75.9975 17.3868 76.7802 16.5546C77.5629 15.7223 78.598 15.2936 79.8604 15.2936C80.9209 15.2936 82.0066 15.6466 82.9912 16.3528L83.1175 16.4537V13.2508L83.0922 13.2256C82.663 13.049 82.1833 12.8473 81.5268 12.7212ZM92.3584 12.6203C91.5504 12.6203 90.793 12.8725 90.1365 13.4021C89.5811 13.8561 89.2023 14.5118 88.8741 15.2936H88.8489V12.8473H85.5666V26.8189H88.8489V19.6818C88.8489 18.4712 89.1013 17.4625 89.6568 16.7311C90.2123 15.9745 90.9192 15.5962 91.7777 15.5962C92.0807 15.5962 92.3836 15.6719 92.7624 15.7223C93.1158 15.8232 93.3683 15.9241 93.5451 16.0502L93.6713 16.151V12.8725L93.5956 12.8473C93.3683 12.6959 92.9138 12.6203 92.3584 12.6203ZM101.296 12.5446C98.9987 12.5446 97.1556 13.2256 95.8679 14.5622C94.555 15.8988 93.9238 17.7399 93.9238 20.0601C93.9238 22.229 94.5802 23.9943 95.8427 25.2805C97.1051 26.5415 98.822 27.1972 100.968 27.1972C103.215 27.1972 105.008 26.5163 106.295 25.1544C107.608 23.7926 108.24 21.9768 108.24 19.7322C108.24 17.5129 107.634 15.7475 106.396 14.4613C105.21 13.1751 103.468 12.5446 101.296 12.5446ZM103.922 23.2882C103.316 24.07 102.357 24.4483 101.17 24.4483C99.9834 24.4483 99.0239 24.07 98.3422 23.2378C97.6605 22.4559 97.3323 21.3211 97.3323 19.8835C97.3323 18.3956 97.6858 17.2607 98.3422 16.4537C99.0239 15.6466 99.9581 15.2431 101.145 15.2431C102.306 15.2431 103.215 15.6214 103.872 16.4032C104.528 17.185 104.882 18.3199 104.882 19.8079C104.831 21.3211 104.553 22.5064 103.922 23.2882ZM115.562 18.6478C114.526 18.219 113.87 17.8912 113.567 17.6138C113.315 17.3616 113.188 17.0085 113.188 16.5546C113.188 16.1763 113.34 15.798 113.718 15.5458C114.097 15.2936 114.526 15.1675 115.158 15.1675C115.713 15.1675 116.294 15.2683 116.849 15.4197C117.405 15.571 117.91 15.798 118.314 16.1006L118.44 16.2015V13.1247L118.364 13.0995C117.985 12.9481 117.48 12.7968 116.875 12.6707C116.269 12.5698 115.713 12.5194 115.259 12.5194C113.693 12.5194 112.406 12.8977 111.396 13.73C110.386 14.5118 109.906 15.571 109.906 16.8067C109.906 17.4625 110.007 18.0425 110.234 18.5217C110.461 19.0009 110.79 19.4548 111.244 19.8331C111.699 20.1862 112.355 20.5897 113.264 20.968C114.021 21.2958 114.602 21.548 114.956 21.7498C115.309 21.9516 115.536 22.1785 115.713 22.3551C115.839 22.5568 115.915 22.809 115.915 23.1369C115.915 24.07 115.208 24.524 113.769 24.524C113.214 24.524 112.633 24.4231 111.951 24.1961C111.269 23.9691 110.638 23.6413 110.108 23.263L109.982 23.1621V26.365L110.057 26.3902C110.537 26.6172 111.118 26.7685 111.825 26.945C112.532 27.0711 113.163 27.172 113.718 27.172C115.41 27.172 116.799 26.7937 117.783 25.9615C118.793 25.1544 119.324 24.1204 119.324 22.7838C119.324 21.8507 119.071 21.0184 118.516 20.3879C117.783 19.7827 116.875 19.1522 115.562 18.6478ZM127.984 12.5446C125.686 12.5446 123.843 13.2256 122.555 14.5622C121.268 15.8988 120.611 17.7399 120.611 20.0601C120.611 22.229 121.268 23.9943 122.53 25.2805C123.793 26.5415 125.509 27.1972 127.656 27.1972C129.903 27.1972 131.695 26.5163 132.983 25.1544C134.296 23.7926 134.927 21.9768 134.927 19.7322C134.927 17.5129 134.321 15.7475 133.084 14.4613C131.897 13.1751 130.155 12.5446 127.984 12.5446ZM130.584 23.2882C129.978 24.07 129.019 24.4483 127.832 24.4483C126.62 24.4483 125.686 24.07 125.004 23.2378C124.323 22.4559 123.995 21.3211 123.995 19.8835C123.995 18.3956 124.348 17.2607 125.004 16.4537C125.686 15.6466 126.62 15.2431 127.807 15.2431C128.943 15.2431 129.877 15.6214 130.534 16.4032C131.19 17.185 131.544 18.3199 131.544 19.8079C131.544 21.3211 131.216 22.5064 130.584 23.2882ZM152.475 15.5458V12.8473H149.167V8.71125L149.066 8.73646L145.935 9.66959L145.86 9.69481V12.8473H140.911V11.0819C140.911 10.2749 141.113 9.64437 141.466 9.24086C141.82 8.83734 142.35 8.63559 143.007 8.63559C143.461 8.63559 143.941 8.73646 144.471 8.96344L144.597 9.0391V6.18928L144.521 6.16406C144.067 6.01274 143.461 5.91187 142.678 5.91187C141.694 5.91187 140.835 6.13884 140.053 6.51714C139.27 6.94587 138.689 7.52592 138.26 8.30773C137.831 9.06432 137.603 9.92179 137.603 10.9054V12.8473H135.306V15.5205H137.603V26.8189H140.911V15.5458H145.86V22.7334C145.86 25.6841 147.248 27.172 150.026 27.172C150.48 27.172 150.96 27.0964 151.414 27.0207C151.894 26.9198 152.247 26.7937 152.449 26.6928L152.475 26.6676V23.9691L152.348 24.07C152.146 24.1961 151.97 24.297 151.667 24.3726C151.414 24.4483 151.187 24.4735 151.01 24.4735C150.354 24.4735 149.899 24.3222 149.571 23.9439C149.268 23.5908 149.117 23.0108 149.117 22.1533V15.5458H152.475Z" fill="#737373"/>
<path d="M0 0.842773H15.4772V16.3024H0V0.842773Z" fill="#F25022"/>
<path d="M17.0933 0.842773H32.5705V16.3024H17.0933V0.842773Z" fill="#7FBA00"/>
<path d="M0 17.9165H15.4772V33.3761H0V17.9165Z" fill="#00A4EF"/>
<path d="M17.0933 17.9165H32.5705V33.3761H17.0933V17.9165Z" fill="#FFB900"/>
</g>
<defs>
<clipPath id="clip0">
<rect width="152.5" height="32.5333" fill="white" transform="translate(0 0.842773)"/>
</clipPath>
</defs>
</svg>
