<svg width="153" height="44" viewBox="0 0 153 44" fill="none" xmlns="http://www.w3.org/2000/svg">
<g clip-path="url(#clip0)">
<path d="M27.9812 38.5886C27.6555 38.6106 27.3392 38.6305 27.0124 38.6305C26.6434 38.6305 26.286 38.5991 25.917 38.5886L26.9913 36.0147L27.9812 38.5886ZM29.1715 41.5083C29.3613 41.4978 29.6565 41.4465 29.9506 41.4465C30.2458 41.4465 30.6148 41.4978 30.7729 41.5083C30.2985 40.4932 29.6027 38.9123 29.2031 38.002C28.8236 37.1241 28.1921 35.6585 27.6871 34.2243C27.5711 34.2557 27.4647 34.2777 27.3497 34.2777C27.2232 34.2777 27.1178 34.2557 27.0018 34.2243C26.7499 35.0823 26.1374 36.4431 25.0747 38.8097L23.8528 41.5083C23.9993 41.4873 24.148 41.4465 24.3261 41.4465C24.4948 41.4465 24.6962 41.4873 24.8322 41.5083C24.9998 40.9122 25.3372 40.0427 25.6735 39.2381C26.0952 39.2161 26.5169 39.1962 26.9375 39.1962C27.3909 39.1962 27.8336 39.2161 28.288 39.2381L28.7287 40.3476L29.1715 41.5083Z" fill="#505967"/>
<path d="M31.6963 36.7469C31.6963 38.5362 31.6963 40.2637 31.5803 41.5083C31.8133 41.4989 32.1074 41.4465 32.3383 41.4465C32.5808 41.4465 32.8338 41.4989 33.0763 41.5083C32.992 40.6608 32.9709 39.5304 32.9709 37.9716C32.9709 36.9135 32.9709 35.1043 33.0868 34.3291C32.8338 34.3605 32.5713 34.393 32.3383 34.393C32.1812 34.393 31.7901 34.3511 31.5909 34.3291C31.6963 35.3432 31.6963 36.087 31.6963 36.7469Z" fill="#505967"/>
<path d="M37.9604 37.9506C38.9197 37.7725 39.7937 37.1754 39.7937 36.0147C39.7937 35.5747 39.625 35.1452 39.3098 34.8413C38.8575 34.4129 38.3399 34.3291 37.6557 34.3291C37.4132 34.3291 36.1913 34.3815 35.9183 34.3815C35.3806 34.3815 35.1065 34.3511 34.8651 34.3291C34.9378 35.6794 34.9378 35.8261 34.9378 37.1974C34.9378 39.2161 34.9273 39.4466 34.844 41.5083C35.0759 41.4779 35.329 41.4465 35.5693 41.4465C35.8339 41.4465 36.0648 41.4873 36.2757 41.5083C36.2757 41.237 36.2335 39.8866 36.2335 39.5828V38.0973H36.4865C37.0558 38.8924 37.7073 39.8133 38.245 40.6409C38.4032 40.8808 38.6351 41.2684 38.7932 41.5083C39.1095 41.4664 39.236 41.4465 39.6472 41.4465C40.0256 41.4465 40.2892 41.4779 40.5833 41.5083C39.9202 40.6828 39.6345 40.3161 38.8038 39.1543C38.6456 38.9343 38.4137 38.5886 38.2556 38.3697L37.9604 37.9506ZM36.2335 34.8948C36.3916 34.8833 36.7817 34.8413 36.982 34.8413C37.3289 34.8413 37.6778 34.8948 37.9604 35.1043C38.3294 35.3756 38.4032 35.7528 38.4032 36.1928C38.4032 36.8716 38.0141 37.6374 36.9609 37.6374C36.6868 37.6374 36.4338 37.6154 36.2335 37.6049V34.8948Z" fill="#505967"/>
<path d="M43.4461 39.0603C42.9527 37.6052 42.2674 35.5644 41.9406 34.3293C41.677 34.3712 41.4461 34.3922 41.2037 34.3922C40.9506 34.3922 40.5922 34.3513 40.3813 34.3293C40.8136 35.4597 41.1815 36.4633 41.4672 37.2595C41.9522 38.6203 42.2674 39.5631 42.6469 40.7124L42.9094 41.5085C43.057 41.4782 43.2247 41.4467 43.3417 41.4467C43.4577 41.4467 43.5631 41.4666 43.7413 41.5085C43.9099 40.9648 44.1102 40.2954 44.2589 39.8659C44.6679 38.6727 44.7217 38.5051 45.2594 37.0196L45.5746 36.1511C45.6906 36.4853 45.8909 37.0196 46.0058 37.3537C46.1218 37.6785 46.6594 39.2803 46.7859 39.6365C46.9546 40.1069 46.9957 40.242 47.3858 41.5085C47.4807 41.4981 47.6799 41.4467 47.8391 41.4467C47.9867 41.4467 48.1016 41.4782 48.2598 41.5085C48.6604 40.264 48.7026 40.1383 49.2919 38.4632C49.8717 36.8299 50.2291 35.8997 50.8606 34.3293C50.7025 34.3712 50.5465 34.3922 50.3873 34.3922C50.187 34.3922 50.0193 34.3607 49.9034 34.3293C49.5238 35.6902 49.3351 36.3501 49.0294 37.249C48.5339 38.7135 48.4706 38.8812 48.166 39.6773C47.8286 38.7774 47.5018 37.866 47.196 36.9462C47.0284 36.4434 46.3843 34.3513 46.3748 34.3293C46.2282 34.3607 46.1218 34.3922 45.9109 34.3922C45.7233 34.3922 45.5841 34.3513 45.4481 34.3293C45.1318 35.6063 44.0154 38.6832 43.9099 38.966L43.6464 39.6459L43.4461 39.0603Z" fill="#505967"/>
<path d="M54.0741 38.5886C53.7473 38.6106 53.432 38.6305 53.1042 38.6305C52.7362 38.6305 52.3778 38.5991 52.0099 38.5886L53.0831 36.0147L54.0741 38.5886ZM55.2633 41.5083C55.4541 41.4978 55.7493 41.4465 56.0434 41.4465C56.3386 41.4465 56.7076 41.4978 56.8647 41.5083C56.3913 40.4932 55.6955 38.9123 55.2949 38.002C54.9154 37.1241 54.2839 35.6585 53.7789 34.2243C53.6629 34.2557 53.5575 34.2777 53.4415 34.2777C53.3161 34.2777 53.2096 34.2557 53.0936 34.2243C52.8417 35.0823 52.2302 36.4431 51.1665 38.8097L49.9446 41.5083C50.0932 41.4873 50.2398 41.4465 50.419 41.4465C50.5877 41.4465 50.7869 41.4873 50.925 41.5083C51.0927 40.9122 51.4311 40.0427 51.7674 39.2381C52.188 39.2161 52.6097 39.1962 53.0304 39.1962C53.4837 39.1962 53.9254 39.2161 54.3788 39.2381L54.8216 40.3476L55.2633 41.5083Z" fill="#505967"/>
<path d="M59.6846 38.7039C59.6846 38.6106 59.7479 38.4954 59.8217 38.3686C60.2644 37.6154 60.6745 36.8297 61.149 36.0765C61.306 35.8251 62.0757 34.6119 62.2348 34.3291C62.1178 34.371 62.0019 34.393 61.7921 34.393C61.5591 34.393 61.3482 34.3605 61.1795 34.3291C60.4215 35.9832 60.2528 36.3384 59.3588 37.8668C58.4638 36.308 58.0632 35.4814 57.515 34.3291C57.2103 34.3815 56.9035 34.393 56.6515 34.393C56.4196 34.393 56.1771 34.371 55.7881 34.3291C56.3352 35.2394 57.2314 36.6841 57.768 37.6049L58.3889 38.6724C58.3889 39.322 58.3573 40.6922 58.3267 41.5083C58.526 41.4873 58.8212 41.4465 59.031 41.4465C59.2734 41.4465 59.517 41.4873 59.7595 41.5083C59.7162 40.5351 59.6846 39.9704 59.6846 39.0904V38.7039Z" fill="#505967"/>
<path d="M62.8416 39.9395C62.7899 40.4413 62.7783 40.5775 62.5991 41.1212C62.9787 41.3098 63.6639 41.6555 64.5685 41.6555C66.4967 41.6555 67.2442 40.4319 67.2442 39.3634C67.2442 39.07 67.1704 38.4519 66.7286 37.9816C66.4229 37.6463 66.1066 37.5322 65.2959 37.2179C64.3703 36.8617 63.8315 36.6522 63.8315 35.8885C63.8315 35.2714 64.2427 34.7581 65.0745 34.7581C65.7376 34.7581 66.2974 35.0724 66.4545 35.6685H66.6021C66.697 35.2714 66.7181 35.1876 66.9289 34.6743C66.4124 34.4449 65.9485 34.2458 65.1799 34.2458C63.2728 34.2458 62.7256 35.4181 62.7256 36.3379C62.7256 37.2074 63.0324 37.7417 64.0529 38.1911C64.3471 38.3168 64.8436 38.5043 65.1378 38.6311C65.3381 38.7138 66.0022 39.0061 66.0022 39.8337C66.0022 40.588 65.453 41.1432 64.6222 41.1432C64.0002 41.1432 63.4731 40.9861 62.9892 39.9395H62.8416Z" fill="#505967"/>
<path d="M4.32876 20.5969C4.32876 12.6854 8.59427 10.5494 11.8182 10.5494C16.9998 10.5494 19.2433 14.8205 19.2433 19.3733C19.2433 21.9787 18.927 24.428 17.6313 26.4069C16.3357 28.3838 14.1881 29.578 11.8488 29.578C6.00397 29.578 4.32876 24.0509 4.32876 20.5969ZM20.0645 36.7688C21.0123 36.1088 22.4978 35.2927 23.5721 34.8213L16.4316 30.4245C20.8226 28.8866 23.5721 24.9927 23.5721 19.6866C23.5721 12.1522 17.7895 8.94864 11.8804 8.94864C5.49899 8.94864 0 12.4654 0 20.4408C0 22.1348 0.379531 25.3384 3.03309 28.0077C5.78258 30.7713 9.03706 31.1788 11.7866 31.1788C12.1334 31.1788 12.4803 31.1788 12.8292 31.1484L20.0645 36.7688Z" fill="#5C0632"/>
<path d="M38.313 21.979C37.3326 22.0429 36.3858 22.1057 35.4043 22.1057C34.2995 22.1057 33.2252 22.0104 32.1203 21.979L35.3432 14.255L38.313 21.979ZM41.8838 30.739C42.452 30.7076 43.3376 30.5504 44.221 30.5504C45.1077 30.5504 46.2115 30.7076 46.6869 30.739C45.2648 27.6936 43.1794 22.9522 41.9776 20.22C40.8401 17.5832 38.9445 13.1864 37.4285 8.88495C37.0806 8.98028 36.7643 9.04314 36.4175 9.04314C36.0379 9.04314 35.7217 8.98028 35.3748 8.88495C34.6157 11.461 32.7835 15.5425 29.5922 22.6379L25.9255 30.739C26.3683 30.6772 26.8111 30.5504 27.3477 30.5504C27.8527 30.5504 28.4547 30.6772 28.8648 30.739C29.3698 28.9487 30.3829 26.3433 31.3929 23.9254C32.6559 23.8636 33.9199 23.8007 35.184 23.8007C36.5429 23.8007 37.8702 23.8636 39.2302 23.9254L40.5554 27.2547L41.8838 30.739Z" fill="#5C0632"/>
<path d="M55.9051 14.8204C55.9051 13.6272 55.9357 12.434 55.9673 11.3026C58.1475 11.3026 60.392 11.3351 62.256 11.5226C62.1611 11.0208 62.0978 10.739 62.0978 10.3933C62.0978 10.1418 62.1611 9.73222 62.256 9.20004C59.2229 9.35613 56.4418 9.38755 53.8188 9.38755C51.3856 9.38755 47.8781 9.35613 45.3816 9.20004C45.4775 9.57717 45.5397 9.98469 45.5397 10.3618C45.5397 10.739 45.4775 11.1465 45.3816 11.5226C46.9946 11.3665 50.0277 11.3026 50.3113 11.3026H51.8916C51.9232 12.5283 51.9549 13.6272 51.9549 14.789L51.9865 23.548C51.9865 25.9355 51.7978 28.3534 51.6702 30.7388C52.8078 30.6141 53.2822 30.5512 53.8188 30.5512C54.1983 30.5512 55.2093 30.6455 56.1265 30.7388C56.0306 29.8609 55.9051 28.8238 55.9051 26.4384V14.8204Z" fill="#5C0632"/>
<path d="M73.4924 21.979C72.513 22.0429 71.5652 22.1057 70.5858 22.1057C69.4788 22.1057 68.4056 22.0104 67.2986 21.979L70.5225 14.255L73.4924 21.979ZM77.0631 30.739C77.6314 30.7076 78.517 30.5504 79.4015 30.5504C80.286 30.5504 81.3919 30.7076 81.8663 30.739C80.4441 27.6936 78.3588 22.9522 77.158 20.22C76.0205 17.5832 74.1239 13.1864 72.6079 8.88495C72.26 8.98028 71.9437 9.04314 71.5968 9.04314C71.2173 9.04314 70.901 8.98028 70.5531 8.88495C69.7962 11.461 67.9628 15.5425 64.7705 22.6379L61.106 30.739C61.5477 30.6772 61.9915 30.5504 62.5281 30.5504C63.0331 30.5504 63.633 30.6772 64.0452 30.739C64.5513 28.9487 65.5612 26.3433 66.5723 23.9254C67.8353 23.8636 69.0993 23.8007 70.3644 23.8007C71.7233 23.8007 73.0506 23.8636 74.4085 23.9254L75.7358 27.2547L77.0631 30.739Z" fill="#5C0632"/>
<path d="M94.5921 20.065C97.4671 19.5307 100.09 17.7414 100.09 14.255C100.09 12.936 99.584 11.6485 98.6352 10.7392C97.2773 9.4517 95.7286 9.20028 93.6749 9.20028C92.9475 9.20028 89.2829 9.35637 88.4606 9.35637C86.8486 9.35637 86.0274 9.26208 85.302 9.20028C85.5224 13.2503 85.5224 13.6893 85.5224 17.8022C85.5224 23.8636 85.4907 24.5529 85.2388 30.739C85.9335 30.6458 86.6915 30.5504 87.4179 30.5504C88.2075 30.5504 88.9034 30.6772 89.5349 30.739C89.5349 29.9219 89.4094 25.8729 89.4094 24.9615V20.5029H90.1685C91.8742 22.8893 93.8341 25.6529 95.445 28.1336C95.9184 28.8565 96.6131 30.0183 97.0865 30.739C98.0353 30.6143 98.4148 30.5504 99.6462 30.5504C100.784 30.5504 101.574 30.6458 102.459 30.739C100.469 28.2593 99.6167 27.1604 97.1192 23.675C96.6447 23.015 95.95 21.979 95.4756 21.32L94.5921 20.065ZM89.4094 10.8953C89.8828 10.8649 91.0519 10.7392 91.6528 10.7392C92.6955 10.7392 93.7371 10.8953 94.5921 11.5228C95.697 12.3399 95.9184 13.4693 95.9184 14.7892C95.9184 16.83 94.7492 19.1221 91.5896 19.1221C90.7673 19.1221 90.0093 19.0582 89.4094 19.0289V10.8953Z" fill="#5C0632"/>
<path d="M141.827 20.1245C141.827 20.3267 138.967 20.5163 134.883 20.6755C134.162 20.2691 133.615 19.8605 133.215 19.5085C138.166 19.6824 141.827 19.8972 141.827 20.1245Z" fill="#747F8A"/>
<path d="M138.894 13.2748C138.894 13.4434 136.496 13.6016 133.069 13.7378C133.56 13.4528 134.066 13.1658 134.598 12.8777C137.187 12.9961 138.894 13.1333 138.894 13.2748Z" fill="#747F8A"/>
<path d="M113.356 28.0112C111.769 28.03 110.378 28.0374 109.291 28.0374C107.726 28.0374 106.459 27.5586 106.459 26.9646C106.459 26.3738 107.726 25.895 109.291 25.895C110.676 25.895 112.553 25.9097 114.705 25.9369C113.872 27.1312 113.477 27.8488 113.44 27.8938C113.416 27.9284 113.385 27.9693 113.356 28.0112Z" fill="#747F8A"/>
<path d="M114.211 29.446C114.734 30.0735 115.235 30.6015 115.907 31.1787C115.907 31.1787 116.16 31.538 116.929 31.23C117.711 30.9137 118.374 30.4831 119.121 29.4868C121.304 29.5235 123.618 29.5717 125.896 29.623C126.084 29.8943 126.464 30.4559 126.933 31.1483C120.583 31.3118 113.69 31.4092 110.159 31.4092C108.689 31.4092 107.495 30.9556 107.495 30.4003C107.495 29.842 108.689 29.3915 110.159 29.3915C111.235 29.3915 112.62 29.3988 114.205 29.4166C114.204 29.4313 114.211 29.446 114.211 29.446Z" fill="#747F8A"/>
<path d="M111.754 34.7087C110.449 34.7087 109.392 34.3096 109.392 33.8172C109.392 33.3238 110.449 32.9236 111.754 32.9236C115.207 32.9236 122.285 33.0284 128.347 33.1991C128.639 33.615 128.931 34.0288 129.208 34.4091C122.967 34.5914 115.37 34.7087 111.754 34.7087Z" fill="#747F8A"/>
<path d="M131.887 37.5708C126.796 37.7929 118.043 37.9417 114.406 37.9417C113.382 37.9417 112.55 37.6242 112.55 37.2398C112.55 36.8521 113.382 36.5368 114.406 36.5368C117.885 36.5368 126.055 36.673 131.211 36.8773C131.444 37.1256 131.672 37.3592 131.887 37.5708Z" fill="#747F8A"/>
<path d="M118.606 39.468C121.609 39.468 130.753 39.6932 130.753 39.9656C130.753 40.2422 121.608 40.4653 118.606 40.4653C118.02 40.4653 117.547 40.2422 117.547 39.9656C117.547 39.6932 118.02 39.468 118.606 39.468Z" fill="#747F8A"/>
<path d="M118.639 21.0968C114.858 21.1607 111.471 21.1963 109.291 21.1963C107.727 21.1963 106.459 20.7175 106.459 20.1246C106.459 19.5327 107.727 19.0518 109.291 19.0518C111.823 19.0518 115.984 19.1 120.495 19.1849C119.825 19.8438 119.205 20.485 118.639 21.0968Z" fill="#747F8A"/>
<path d="M137.182 16.3051C139.397 16.4245 140.791 16.5555 140.791 16.6917C140.791 16.8415 139.104 16.985 136.493 17.1128C137.051 16.6958 137.173 16.3323 137.182 16.3051Z" fill="#747F8A"/>
<path d="M110.16 17.699C108.688 17.699 107.495 17.2485 107.495 16.6912C107.495 16.1349 108.688 15.6823 110.16 15.6823C113.178 15.6823 118.653 15.7557 124.144 15.8761C123.471 16.4408 122.832 16.9992 122.229 17.5471C117.409 17.6435 112.827 17.699 110.16 17.699Z" fill="#747F8A"/>
<path d="M126.572 13.9391C120.957 14.0805 114.874 14.1675 111.753 14.1675C110.448 14.1675 109.392 13.7683 109.392 13.2749C109.392 12.7815 110.448 12.3803 111.753 12.3803C115.198 12.3803 122.259 12.4871 128.313 12.6568C128.011 12.8747 127.707 13.0926 127.4 13.321C127.119 13.5284 126.843 13.7327 126.572 13.9391Z" fill="#747F8A"/>
<path d="M114.405 10.5532C113.381 10.5532 112.55 10.24 112.55 9.85133C112.55 9.46371 113.381 9.14839 114.405 9.14839C118.267 9.14839 127.898 9.3181 132.79 9.56009C132.478 9.76333 132.166 9.9739 131.851 10.1855C126.752 10.4045 118.035 10.5532 114.405 10.5532Z" fill="#747F8A"/>
<path d="M108.999 24.636C107.407 24.636 106.114 24.1489 106.114 23.5444C106.114 22.9441 107.407 22.4549 108.999 22.4549C110.994 22.4549 113.981 22.4842 117.359 22.5355C116.724 23.2772 116.173 23.9645 115.701 24.5805C113.011 24.6161 110.66 24.636 108.999 24.636Z" fill="#747F8A"/>
<path d="M117.548 7.12446C117.548 6.84894 118.021 6.6258 118.606 6.6258C121.609 6.6258 130.753 6.84894 130.753 7.12446C130.753 7.39788 121.61 7.62207 118.606 7.62207C118.021 7.62207 117.548 7.39788 117.548 7.12446Z" fill="#747F8A"/>
<path d="M142.127 22.7373C142.148 23.2811 142.145 23.8206 142.117 24.3496C136.798 24.5591 131.753 24.8776 131.753 25.2359C131.753 25.5879 136.685 25.9032 141.943 26.1117C141.851 26.7151 141.731 27.307 141.586 27.8874C136.402 28.0979 131.592 28.408 131.592 28.7569C131.592 29.0932 136.083 29.3959 141.056 29.6065C140.828 30.2371 140.57 30.85 140.28 31.4366C136.009 31.6409 132.479 31.9133 132.479 32.2108C132.479 32.4884 135.563 32.7451 139.45 32.9431C139.232 33.2961 139.004 33.6419 138.766 33.9687C138.513 34.3249 138.238 34.6779 137.947 35.0247C135.517 35.208 133.849 35.4165 133.849 35.6396C133.849 35.8313 135.043 36.0105 136.884 36.1708C135.879 37.1587 134.692 38.0816 133.293 38.8872C133.293 38.8872 131.645 37.4771 130.285 35.8303C129.073 34.3616 126.501 30.4896 125.895 29.6232C125.289 28.7569 124.891 28.5034 124.182 28.7548C123.232 29.089 122.129 29.2566 121.789 29.2566C121.45 29.2566 121.263 29.1256 121.832 28.9014C122.4 28.6741 124.642 27.6223 125.746 25.4485C126.986 23.0003 125.895 19.6197 125.895 19.6197C125.479 21.4268 124.532 22.1014 124.532 22.1014C124.838 20.4232 124.505 18.9021 123.671 17.8346L123.206 19.9591C123.206 19.9591 122.915 19.9444 122.195 20.5458C121.476 21.1481 121.278 22.026 121.278 22.026C121.844 22.2523 122.525 21.6876 122.525 21.6876C121.655 24.9216 120.408 27.5542 119.498 28.9465C118.589 30.3388 117.84 30.8636 116.929 31.2313C116.16 31.5372 115.907 31.1779 115.907 31.1779C115.236 30.6017 114.734 30.0737 114.211 29.4462C114.211 29.4462 114.169 29.3729 114.31 29.375C114.685 29.3802 115.351 28.7443 115.496 28.4803C115.663 28.1776 115.645 27.946 115.562 27.9303C115.479 27.9167 115.337 28.1566 114.615 28.6092C113.897 29.0607 113.567 28.7474 113.328 28.496C113.142 28.2959 113.325 28.0487 113.441 27.8937C113.55 27.7554 117.349 20.7165 127.4 13.3215C140.572 3.6301 148.984 1.01318 149.465 0.824615C149.784 0.699951 150.304 0.535477 150.422 0.655952C150.552 0.792141 150.617 0.901089 150.599 1.05928C150.582 1.21642 150.498 1.29709 149.888 1.56422C144.832 3.77781 138.929 7.46747 135.576 9.61506C131.451 11.6118 127.514 14.4634 127.37 14.5315C127.053 14.7274 127.287 15.0123 127.479 14.8929C134.443 10.2897 142.609 7.15424 151.632 4.58551C152.063 4.46399 152.299 4.46399 152.371 4.55828C152.452 4.66304 152.487 4.78246 152.5 4.91446C152.511 5.07893 152.374 5.16589 152.004 5.30941C142.31 8.88802 135.166 12.2121 130.57 15.2847C130.57 15.2847 130.095 15.5696 130.088 15.8996C130.086 16.0253 130.343 16.04 130.343 16.04C132.644 16.0809 135.719 16.215 137.182 16.2998C137.182 16.2998 136.974 17.0363 135.572 17.6292C134.491 18.0881 133.489 18.0147 132.498 18.0231C132.278 18.0189 132.091 18.24 132.267 18.4757C132.356 18.593 134.464 21.9663 142.127 22.7373Z" fill="#5C0632"/>
<path d="M71.8806 40.3777H70.5817C70.5817 40.3777 70.4067 39.5836 70.8769 39.2798C71.3492 38.9718 71.8806 38.7351 71.8806 38.7351V40.3777ZM78.0437 37.4046C78.0437 37.4046 77.2541 37.8551 76.7544 38.2972C76.2578 38.7351 76.8566 38.9017 76.8566 38.9017V40.3777H73.0877V35.212C73.0877 35.212 71.714 36.467 71.5854 36.6336C71.4525 36.8117 71.9122 36.973 71.9122 36.973L71.8342 37.4623C71.8342 37.4623 71.287 37.7441 70.6228 38.1903C69.9629 38.6314 69.4737 39.1939 69.4737 39.5836C69.4737 39.9744 69.3071 41.5081 69.3071 41.5081H78.0437V37.4046ZM70.2412 35.5158C70.6713 35.5158 70.975 35.3471 70.975 35.0067C70.975 34.6651 70.7736 34.4273 70.2412 34.4273C69.7678 34.4273 69.6413 34.6327 69.6413 35.0067C69.6413 35.3838 69.8058 35.5158 70.2412 35.5158ZM71.8479 35.5158C72.2822 35.5158 72.5764 35.3471 72.5764 35.0067C72.5764 34.6651 72.3771 34.4273 71.8479 34.4273C71.3724 34.4273 71.248 34.6327 71.248 35.0067C71.248 35.3838 71.4114 35.5158 71.8479 35.5158ZM74.2822 41.9523C73.812 41.9523 73.6823 42.1524 73.6823 42.5285C73.6823 42.9014 73.8489 43.0376 74.2822 43.0376C74.7123 43.0376 75.017 42.8679 75.017 42.5285C75.017 42.1859 74.8188 41.9523 74.2822 41.9523ZM75.9521 41.9523C75.4819 41.9523 75.3533 42.1524 75.3533 42.5285C75.3533 42.9014 75.5241 43.0376 75.9521 43.0376C76.3885 43.0376 76.688 42.8679 76.688 42.5285C76.688 42.1859 76.4908 41.9523 75.9521 41.9523ZM94.7779 35.4142C95.2112 35.4142 95.5148 35.2497 95.5148 34.9092C95.5148 34.5709 95.3145 34.3289 94.7779 34.3289C94.3087 34.3289 94.1812 34.5342 94.1812 34.9092C94.1812 35.2843 94.3488 35.4142 94.7779 35.4142ZM96.4468 35.4142C96.8769 35.4142 97.1784 35.2497 97.1784 34.9092C97.1784 34.5709 96.9781 34.3289 96.4468 34.3289C95.9745 34.3289 95.849 34.5342 95.849 34.9092C95.849 35.2843 96.0103 35.4142 96.4468 35.4142ZM101.054 35.5546C100.819 35.7568 100.887 35.9987 101.186 35.9652V41.5154H102.423V34.6065C102.423 34.6065 101.285 35.3534 101.054 35.5546ZM96.0799 38.667H95.2787C95.2787 38.2301 96.0799 37.9881 96.0799 37.9881V38.667ZM90.8055 39.5836C90.8055 39.7848 90.796 40.1127 90.7865 40.3777H83.7936V39.1562C83.976 38.6859 84.2839 38.6314 84.7604 38.6314H89.8724C90.9763 38.6314 90.8055 39.2086 90.8055 39.5836ZM98.9833 35.9589V40.3777H97.3186V36.3654C97.3186 36.3654 96.9781 36.4953 96.5111 36.7006C96.0483 36.9091 94.3741 37.5848 94.3741 38.4983V39.5543H96.0799V40.3777H92.0337C92.0368 40.1839 92.041 39.899 92.041 39.481C92.041 38.1641 90.9119 37.4476 89.9072 37.4476H85.2295C84.4104 37.4476 84.015 37.6445 83.7936 37.8698V34.4682C83.7936 34.4682 83.063 34.9784 82.5264 35.3838C81.9909 35.7892 82.5264 36.0616 82.5264 36.0616V40.3777H80.9935L80.9608 36.6734C80.9608 36.6734 79.8939 37.4476 79.5882 37.6833C79.2899 37.918 79.4554 38.1275 79.7896 38.1275C79.7896 38.1275 79.7284 40.8628 79.7284 41.5081C79.7284 42.1576 79.1876 42.8993 78.0522 42.562C78.0522 42.562 77.6916 42.6311 77.991 42.9014C78.2894 43.1706 78.6499 43.376 79.0537 43.376C79.4554 43.376 80.9271 43.1005 80.9271 41.5081H100.217V34.6023C100.217 34.6023 99.0814 35.3471 98.8473 35.5493C98.6122 35.7515 98.6807 35.9946 98.9833 35.9589Z" fill="#5C0632"/>
</g>
<defs>
<clipPath id="clip0">
<rect width="152.5" height="42.7618" fill="white" transform="translate(0 0.614258)"/>
</clipPath>
</defs>
</svg>
